<?xml version="1.0" encoding="UTF-8"?>
<svg version="1.1" xmlns="http://www.w3.org/2000/svg" width="3500" height="2255">
<path d="M0 0 C1.94164536 0.00273422 1.94164536 0.00273422 3.92251587 0.00552368 C23.81350407 0.05258861 43.33682084 0.62060529 63.0625 3.3125 C64.36429199 3.48410645 65.66608398 3.65571289 67.00732422 3.83251953 C142.7072487 13.94808907 218.32700017 41.10355972 282.0625 83.3125 C283.21129639 84.06950195 283.21129639 84.06950195 284.38330078 84.84179688 C304.91489284 98.43524501 324.35724012 113.45384287 342.55078125 130.046875 C343.90504709 131.26845228 345.26531147 132.48414314 346.6574707 133.66235352 C353.03349118 139.0927813 358.90964336 145.00838921 364.81713867 150.93676758 C366.62112085 152.74610933 368.43038665 154.55004319 370.24023438 156.35351562 C376.06009646 162.1697224 381.76699464 168.0074497 387.0625 174.3125 C387.93905981 175.32252188 388.81661275 176.33168302 389.6953125 177.33984375 C406.34535121 196.78228707 421.50995292 217.60288395 435.0625 239.3125 C435.63363525 240.22515625 435.63363525 240.22515625 436.21630859 241.15625 C443.32882126 252.59144004 449.75800169 264.41722017 456.0625 276.3125 C456.52946289 277.19292969 456.99642578 278.07335937 457.47753906 278.98046875 C499.47110714 358.84883278 517.41972842 451.50871832 489.91140747 660.47732544 C471.50675653 719.3668305 443.65653563 774.35584565 406.0625 823.3125 C405.65209473 823.84907227 405.24168945 824.38564453 404.81884766 824.93847656 C390.54852544 843.54727705 374.72511171 860.70744028 358.1875 877.3125 C357.40294434 878.10172852 356.61838867 878.89095703 355.81005859 879.70410156 C351.0547939 884.44625524 346.15694906 888.93943546 341.0625 893.3125 C339.90590905 894.33408033 338.75091593 895.35747299 337.59765625 896.3828125 C328.41670892 904.48527109 318.89652383 912.02024704 309.0625 919.3125 C307.98162109 920.116875 307.98162109 920.116875 306.87890625 920.9375 C230.00359145 977.94308103 138.41659485 1012.39779063 43.0625 1020.3125 C41.43296387 1020.45389404 41.43296387 1020.45389404 39.77050781 1020.59814453 C27.96183199 1021.51368542 16.15111926 1021.55594318 4.3125 1021.5625 C2.66110519 1021.56351212 2.66110519 1021.56351212 0.97634888 1021.56454468 C-18.47121044 1021.54572622 -37.63798386 1020.7128625 -56.9375 1018.3125 C-57.62358337 1018.22764343 -58.30966675 1018.14278687 -59.01654053 1018.05535889 C-126.01470228 1009.66134304 -190.73790099 987.60528282 -249.9375 955.3125 C-250.65035156 954.92481445 -251.36320312 954.53712891 -252.09765625 954.13769531 C-278.88046621 939.39666733 -304.65502417 921.11929767 -327.71289062 901.09838867 C-329.79494091 899.29113816 -331.89358664 897.50794856 -334.01416016 895.74609375 C-342.8928403 888.3295979 -351.14027607 880.38911543 -359.28100586 872.17480469 C-361.39180246 870.04555061 -363.51069401 867.92460919 -365.63085938 865.8046875 C-367.00307941 864.42755672 -368.3748409 863.04996884 -369.74609375 861.671875 C-370.36600693 861.050849 -370.9859201 860.429823 -371.62461853 859.78997803 C-375.91640546 855.45216862 -379.96108991 850.93986335 -383.9375 846.3125 C-384.61148582 845.53789177 -384.61148582 845.53789177 -385.29908752 844.74763489 C-393.26394174 835.58448174 -400.6811087 826.04241874 -407.9375 816.3125 C-408.48196777 815.58369629 -409.02643555 814.85489258 -409.58740234 814.10400391 C-417.9518285 802.85615001 -425.64889365 791.28370183 -432.9375 779.3125 C-433.57268555 778.27174316 -433.57268555 778.27174316 -434.22070312 777.20996094 C-484.50098381 694.37897556 -510.35409513 599.84855199 -494.9375 392.3125 C-482.10842539 340.34822142 -461.9031995 289.97812029 -433.9375 244.3125 C-433.47504883 243.54921387 -433.01259766 242.78592773 -432.53613281 241.99951172 C-417.6617406 217.46952039 -400.59020578 193.83041558 -381.1328125 172.71875 C-379.26706694 170.67373351 -377.4418856 168.60380109 -375.625 166.515625 C-366.15404681 155.66859356 -356.24659744 145.3651435 -345.52587891 135.75244141 C-343.90785196 134.28562264 -342.31655309 132.79423059 -340.73046875 131.29296875 C-333.70108618 124.65529011 -326.38752547 118.59481408 -318.72460938 112.70556641 C-316.93577919 111.31115861 -315.17576105 109.88726905 -313.421875 108.44921875 C-290.651939 89.798639 -265.59121531 74.62734848 -239.9375 60.3125 C-239.28152832 59.94318359 -238.62555664 59.57386719 -237.94970703 59.19335938 C-185.70151631 29.88169003 -126.06072341 12.41958639 -67 4.0625 C-65.4065979 3.83578613 -65.4065979 3.83578613 -63.78100586 3.60449219 C-42.55067481 0.77484596 -21.403282 -0.06278438 0 0 Z " fill="#00355E" transform="translate(1672.9375,115.6875)"/>
<path d="M0 0 C2.5461215 2.5461215 3.44985136 5.3499979 4.6875 8.65625 C4.9461937 9.33772598 5.20488739 10.01920197 5.47142029 10.72132874 C6.32283098 12.97778825 7.16294775 15.2381767 8 17.5 C8.2886795 18.27753632 8.57735901 19.05507263 8.87478638 19.85617065 C39.85915401 103.68407059 48.37226551 193.84638495 -7.63720703 414.57080078 C-23.5471639 448.94596996 -42.93388889 480.96226636 -66 511 C-66.41040527 511.53657227 -66.82081055 512.07314453 -67.24365234 512.62597656 C-81.51397456 531.23477705 -97.33738829 548.39494028 -113.875 565 C-114.65955566 565.78922852 -115.44411133 566.57845703 -116.25244141 567.39160156 C-121.0077061 572.13375524 -125.90555094 576.62693546 -131 581 C-132.15659095 582.02158033 -133.31158407 583.04497299 -134.46484375 584.0703125 C-143.64579108 592.17277109 -153.16597617 599.70774704 -163 607 C-164.08087891 607.804375 -164.08087891 607.804375 -165.18359375 608.625 C-242.05890855 665.63058103 -333.64590515 700.08529063 -429 708 C-430.62953613 708.14139404 -430.62953613 708.14139404 -432.29199219 708.28564453 C-444.10066801 709.20118542 -455.91138074 709.24344318 -467.75 709.25 C-469.40139481 709.25101212 -469.40139481 709.25101212 -471.08615112 709.25204468 C-490.53371044 709.23322622 -509.70048386 708.4003625 -529 706 C-529.68608337 705.91514343 -530.37216675 705.83028687 -531.07904053 705.74285889 C-598.07720228 697.34884304 -662.80040099 675.29278282 -722 643 C-723.06927734 642.41847168 -723.06927734 642.41847168 -724.16015625 641.82519531 C-750.94296621 627.08416733 -776.71752417 608.80679767 -799.77539062 588.78588867 C-801.85744091 586.97863816 -803.95608664 585.19544856 -806.07666016 583.43359375 C-814.9553403 576.0170979 -823.20277607 568.07661543 -831.34350586 559.86230469 C-833.45430246 557.73305061 -835.57319401 555.61210919 -837.69335938 553.4921875 C-839.06557941 552.11505672 -840.4373409 550.73746884 -841.80859375 549.359375 C-842.42850693 548.738349 -843.0484201 548.117323 -843.68711853 547.47747803 C-847.97890546 543.13966862 -852.02358991 538.62736335 -856 534 C-856.67398582 533.22539177 -856.67398582 533.22539177 -857.36158752 532.43513489 C-865.32644174 523.27198174 -872.7436087 513.72991874 -880 504 C-880.54446777 503.27119629 -881.08893555 502.54239258 -881.64990234 501.79150391 C-890.0143285 490.54365001 -897.71139365 478.97120183 -905 467 C-905.63518555 465.95924316 -905.63518555 465.95924316 -906.28320312 464.89746094 C-933.5979809 419.89950294 -953.87617127 371.42973964 -966.625 320.375 C-966.8778627 319.36475769 -966.8778627 319.36475769 -967.13583374 318.33410645 C-968.8184872 311.5550499 -970.21000303 304.93630552 -971 298 C-969.59814453 297.68361572 -969.59814453 297.68361572 -968.16796875 297.36083984 C-945.91023871 292.35425816 -945.91023871 292.35425816 -923.75 286.9375 C-914.03785557 284.45884465 -904.27623263 282.23257264 -894.49365234 280.05297852 C-884.90782181 277.91485327 -875.37208571 275.62653401 -865.85546875 273.19921875 C-857.29442903 271.03303373 -848.68324208 269.13263982 -840.05664062 267.24755859 C-832.7538267 265.64106479 -825.49524656 263.91047787 -818.25 262.0625 C-808.37144581 259.54313719 -798.44567501 257.2700881 -788.49584961 255.05352783 C-778.90929051 252.91520851 -769.37281544 250.62672013 -759.85546875 248.19921875 C-751.29442903 246.03303373 -742.68324208 244.13263982 -734.05664062 242.24755859 C-726.7538267 240.64106479 -719.49524656 238.91047787 -712.25 237.0625 C-702.37144581 234.54313719 -692.44567501 232.2700881 -682.49584961 230.05352783 C-672.90929051 227.91520851 -663.37281544 225.62672013 -653.85546875 223.19921875 C-645.29442903 221.03303373 -636.68324208 219.13263982 -628.05664062 217.24755859 C-620.7538267 215.64106479 -613.49524656 213.91047787 -606.25 212.0625 C-597.03492001 209.71234537 -587.78170077 207.56829353 -578.5 205.5 C-565.27561959 202.55094434 -552.12803727 199.35064933 -539 196 C-536.2717118 195.30897687 -533.5424346 194.62198762 -530.8125 193.9375 C-529.56855469 193.62554688 -528.32460937 193.31359375 -527.04296875 192.9921875 C-524.02980717 192.2458983 -521.01063422 191.52843595 -517.98828125 190.8203125 C-509.03686215 188.72276081 -500.14308219 186.53704887 -491.30126953 184.01586914 C-484.23904961 182.02236421 -477.12328025 180.26085333 -470 178.5 C-462.30394513 176.59646128 -454.6243688 174.67424966 -447 172.5 C-439.37562238 170.32574783 -431.69600054 168.4037823 -424 166.5 C-415.50700829 164.39799721 -407.04565287 162.23549916 -398.62670898 159.85473633 C-392.28921324 158.06636336 -385.93042875 156.36415291 -379.5625 154.6875 C-378.55985107 154.4205835 -377.55720215 154.15366699 -376.52416992 153.87866211 C-375.58935791 153.6338208 -374.6545459 153.38897949 -373.69140625 153.13671875 C-372.85810791 152.91717529 -372.02480957 152.69763184 -371.16625977 152.47143555 C-369 152 -369 152 -366 152 C-362.16597627 166.92097298 -358.61204673 181.88972884 -355.27319336 196.92797852 C-354.99096924 198.19569092 -354.70874512 199.46340332 -354.41796875 200.76953125 C-354.16813232 201.89979736 -353.9182959 203.03006348 -353.66088867 204.19458008 C-353.03105481 207.0572857 -353.03105481 207.0572857 -352 210 C-352.02388235 212.64849586 -352.11861699 215.24942 -352.27734375 217.890625 C-352.32471176 218.72313782 -352.37207977 219.55565063 -352.42088318 220.41339111 C-353.13801278 232.1872162 -354.28362048 243.92816081 -355.37078857 255.67221069 C-355.98677595 262.34834892 -356.58917014 269.02573477 -357.19140625 275.703125 C-357.29866972 276.89137878 -357.29866972 276.89137878 -357.40810013 278.1036377 C-359.2798328 298.87170863 -361.0085144 319.65180024 -362.74375916 340.431633 C-365.35679918 371.72159301 -368.03382146 403.00373584 -370.87014294 434.27426147 C-372.39213068 451.05870972 -373.85972382 467.84504917 -375.15161133 484.64892578 C-375.30279419 486.59387939 -375.30279419 486.59387939 -375.45703125 488.578125 C-375.53928955 489.66512695 -375.62154785 490.75212891 -375.70629883 491.87207031 C-376.0252098 495.26848541 -376.49267109 498.62702013 -377 502 C-376.10168457 501.69707031 -375.20336914 501.39414062 -374.27783203 501.08203125 C-370.95017981 499.96146451 -367.62164904 498.84358873 -364.29248047 497.72753906 C-362.85071123 497.24359309 -361.40930254 496.75857161 -359.96826172 496.27246094 C-357.89904721 495.57465288 -355.82857457 494.88070002 -353.7578125 494.1875 C-351.88826904 493.55908203 -351.88826904 493.55908203 -349.98095703 492.91796875 C-347 492 -347 492 -345 492 C-344.83346924 491.28384521 -344.66693848 490.56769043 -344.49536133 489.82983398 C-342.63327395 482.07896573 -340.28197711 474.59564963 -337.6875 467.0625 C-334.90414034 458.86059744 -332.24233203 450.66195814 -329.9375 442.3125 C-327.55050539 433.66793564 -324.80236872 425.17638553 -321.89038086 416.69458008 C-319.73551133 410.37892307 -317.83471719 404.02267947 -316.02685547 397.59936523 C-314.32110024 391.62029976 -312.47346615 385.68621243 -310.625 379.75 C-310.42957611 379.12037354 -310.23415222 378.49074707 -310.0328064 377.84204102 C-307.49070264 369.65459346 -304.85821304 361.50511279 -302.09375 353.39013672 C-299.96599465 347.06711789 -298.17991147 340.66161013 -296.38989258 334.23632812 C-294.46468276 327.41707477 -292.27917065 320.7084414 -290 314 C-287.18251001 305.70648573 -284.63107835 297.38912842 -282.29345703 288.94897461 C-280.09339545 281.10614873 -277.53530394 273.39846465 -274.890625 265.6953125 C-272.73568346 259.37940659 -270.83478745 253.0229291 -269.02685547 246.59936523 C-267.32110024 240.62029976 -265.47346615 234.68621243 -263.625 228.75 C-263.42957611 228.12037354 -263.23415222 227.49074707 -263.0328064 226.84204102 C-260.49070264 218.65459346 -257.85821304 210.50511279 -255.09375 202.39013672 C-252.96769672 196.0721759 -251.18262662 189.67192549 -249.39428711 183.25170898 C-247.1289646 175.22731584 -244.49394176 167.3447145 -241.82080078 159.44848633 C-240.0989132 154.34612218 -238.4378509 149.25403246 -237 144.0625 C-236.55981285 142.5989357 -236.55981285 142.5989357 -236.11073303 141.10580444 C-235.16104545 137.81909417 -234.52206559 134.51681793 -233.88182068 131.15713501 C-230.32970547 114.88505319 -230.32970547 114.88505319 -224.79469681 110.08919525 C-218.19442532 106.29139104 -210.8233521 104.74389964 -203.47265625 103.0234375 C-201.12007523 102.39019548 -198.77002712 101.74747596 -196.42247009 101.09585571 C-190.25119547 99.40974901 -184.05441728 97.85232324 -177.84320068 96.32098389 C-171.60774692 94.76078664 -165.40423697 93.08331101 -159.19726562 91.4140625 C-150.0222724 88.95904533 -140.83387582 86.5691255 -131.62524414 84.24365234 C-119.01921626 81.05469359 -106.50301537 77.56922599 -94 74 C-93.05354677 73.72993259 -92.10709354 73.45986519 -91.13195992 73.18161392 C-86.20974244 71.77557786 -81.2899698 70.36145527 -76.37304688 68.93701172 C-73.94201863 68.23321404 -71.51008708 67.53259447 -69.078125 66.83203125 C-41.17625334 58.77335696 -16.11656937 47.34110926 8 31 C7.3733749 27.43111795 6.42264142 24.21732263 5.1171875 20.83984375 C4.75496094 19.88142578 4.39273438 18.92300781 4.01953125 17.93554688 C3.2542122 15.93082888 2.48334002 13.92822236 1.70703125 11.92773438 C1.34738281 10.97060547 0.98773437 10.01347656 0.6171875 9.02734375 C0.28315918 8.15843506 -0.05086914 7.28952637 -0.39501953 6.39428711 C-1.04704413 3.81381689 -0.88316263 2.47694475 0 0 Z " fill="#00355E" transform="translate(2145,428)"/>
<path d="M0 0 C1.59581633 -0.000873 3.19163239 -0.00262571 4.78744692 -0.00517833 C9.1567557 -0.00963736 13.52596589 -0.00166809 17.89526212 0.00837779 C22.61293932 0.01703085 27.33061116 0.01409082 32.04829407 0.01257324 C40.21674983 0.01152557 48.38517358 0.01778992 56.55362129 0.02904892 C68.36375873 0.04531684 80.17388073 0.05051325 91.98402815 0.0530249 C111.14613475 0.05739997 130.30822431 0.07070399 149.47032166 0.08963013 C168.08229996 0.10799378 186.69427362 0.12214791 205.30625916 0.13064575 C206.45388794 0.1311712 207.60151673 0.13169665 208.78392214 0.13223802 C214.54135384 0.13484813 220.29878556 0.13737554 226.05621731 0.13986182 C273.80469682 0.16058847 321.55315782 0.1958089 369.30162048 0.24050903 C368.99688116 2.94327543 368.68858825 5.64555871 368.37828064 8.34768677 C368.29316727 9.10584435 368.20805389 9.86400192 368.12036133 10.64513397 C367.38878927 16.97663713 366.22049155 23.1171108 364.67662048 29.30300903 C364.41647156 30.35681763 364.15632263 31.41062622 363.88829041 32.49636841 C356.66836122 60.9273531 345.39138763 88.06777921 330.30162048 113.24050903 C329.83916553 114.26314661 329.37671059 115.28578419 328.90024185 116.33941078 C326.00027885 119.57692653 325.59196507 119.68742161 321.49903488 119.97879601 C319.44702982 120.00408414 317.39445825 119.99579546 315.34257507 119.96203613 C313.64685785 119.96972596 313.64685785 119.96972596 311.91688371 119.97757113 C308.11454273 119.98748385 304.31377695 119.9544036 300.51158142 119.92166138 C297.79180389 119.91663157 295.07205754 119.92065316 292.35227966 119.92431641 C286.48956126 119.92746382 280.62724324 119.90862605 274.76462555 119.87488937 C266.28831781 119.82614383 257.81220383 119.81050248 249.33577111 119.80296142 C235.58371789 119.78982695 221.83187811 119.74989012 208.0799408 119.69314575 C194.72057649 119.63807854 181.36127044 119.59567344 168.0018158 119.57009888 C167.17005695 119.56849089 166.33829811 119.56688291 165.48133445 119.5652262 C158.97651329 119.55274979 152.47169086 119.5410082 145.96686792 119.52949882 C114.07825621 119.47288812 82.19017873 119.35218103 50.30162048 119.24050903 C50.30162048 174.35050903 50.30162048 229.46050903 50.30162048 286.24050903 C69.85283142 286.22890747 89.40404236 286.21730591 109.54771423 286.20535278 C121.89341745 286.20024656 134.23912001 286.19538549 146.58482361 286.19168091 C153.06667585 286.1897229 159.54852806 286.18770237 166.03038025 286.18557739 C166.84282788 286.18531364 167.65527551 286.1850499 168.49234277 286.18477815 C181.62614191 286.18042324 194.7599367 286.17253635 207.89373326 286.16335624 C221.36235561 286.15402028 234.83097568 286.14845355 248.29960114 286.14642054 C256.61726229 286.14504519 264.93491113 286.14069397 273.25256849 286.13259257 C278.94842455 286.12732582 284.64427421 286.12570457 290.34013253 286.12700766 C293.63132416 286.12765115 296.92248951 286.12609384 300.21367836 286.12130356 C303.7735225 286.11637368 307.33331273 286.11750813 310.89315796 286.12025452 C312.47045918 286.11588525 312.47045918 286.11588525 314.07962507 286.11142772 C315.49861194 286.1144143 315.49861194 286.1144143 316.94626522 286.1174612 C317.76911918 286.11708148 318.59197313 286.11670176 319.43976206 286.11631054 C321.30162048 286.24050903 321.30162048 286.24050903 322.30162048 287.24050903 C322.39979256 288.84508094 322.42793969 290.45398177 322.42860413 292.06155396 C322.43142395 293.10483856 322.43424377 294.14812317 322.43714905 295.22302246 C322.4341127 296.95451035 322.4341127 296.95451035 322.43101501 298.72097778 C322.43364349 300.53295151 322.43364349 300.53295151 322.43632507 302.38153076 C322.43998326 305.70376857 322.43911016 309.02594446 322.43594599 312.34817886 C322.433422 315.81774227 322.43576003 319.28730295 322.43733215 322.75686646 C322.43915374 328.58442665 322.43674784 334.41197419 322.43199158 340.23953247 C322.42654898 346.98612196 322.42831164 353.73268123 322.43381798 360.47926998 C322.43834944 366.26185077 322.4389995 372.04442244 322.43637931 377.82700443 C322.43481672 381.2850246 322.4346223 384.74303054 322.4379158 388.2010498 C322.44132887 392.05405867 322.43660425 395.90703343 322.43101501 399.76004028 C322.43303925 400.91436554 322.43506348 402.0686908 322.43714905 403.25799561 C322.43291931 404.82292252 322.43291931 404.82292252 322.42860413 406.41946411 C322.4282271 407.33166214 322.42785007 408.24386017 322.42746162 409.18370056 C322.30162048 411.24050903 322.30162048 411.24050903 321.30162048 412.24050903 C319.85247673 412.33717668 318.39862943 412.36422708 316.94626522 412.36355686 C316.00027397 412.36554791 315.05428272 412.36753896 314.07962507 412.36959034 C313.02809092 412.3666775 311.97655678 412.36376466 310.89315796 412.36076355 C309.78566084 412.36161797 308.67816373 412.3624724 307.5371061 412.36335272 C303.79510203 412.36501077 300.05314197 412.35948085 296.31114197 412.35403442 C293.64107664 412.3537526 290.97101408 412.35386608 288.3009491 412.35447693 C282.5365598 412.35500236 276.77218179 412.35185361 271.00779533 412.34623909 C262.67336733 412.33812662 254.3389448 412.33550913 246.00451327 412.3342511 C232.48383563 412.33206018 218.963164 412.32539902 205.44248962 412.31594849 C192.30512013 412.3067754 179.16775229 412.29970552 166.03038025 412.29544067 C165.21290493 412.29517268 164.39542961 412.29490468 163.5531823 412.29462856 C157.16039041 412.29254925 150.76759847 412.29059229 144.37480652 412.288674 C113.01707232 412.2792331 81.65935317 412.25911651 50.30162048 412.24050903 C50.30162048 488.80050903 50.30162048 565.36050903 50.30162048 644.24050903 C154.25162048 644.24050903 258.20162048 644.24050903 365.30162048 644.24050903 C364.64352237 653.45388263 363.90702645 661.64626973 361.80162048 670.49050903 C361.54098816 671.59604126 361.28035583 672.70157349 361.01182556 673.84060669 C356.21235584 693.41757314 349.05621913 712.11250006 340.30162048 730.24050903 C339.96275818 730.94852661 339.62389587 731.65654419 339.27476501 732.38601685 C326.42212997 759.11999954 326.42212997 759.11999954 322.30162048 763.24050903 C320.54334522 763.34061174 318.78100906 763.36974827 317.01988792 763.3719368 C315.86717663 763.37577794 314.71446534 763.37961909 313.5268234 763.38357663 C312.24428226 763.38271015 310.96174111 763.38184367 309.64033508 763.38095093 C308.27660304 763.38353243 306.91287175 763.38654498 305.54914153 763.38995433 C301.78363223 763.39805407 298.01814196 763.39981556 294.25262499 763.4005518 C290.1977795 763.40239741 286.142944 763.40994266 282.08810425 763.41668701 C273.20934165 763.43029607 264.33058356 763.4363002 255.45181227 763.44069767 C249.9059448 763.44345805 244.36007908 763.44769525 238.8142128 763.45220184 C223.457225 763.46440221 208.10023862 763.47469717 192.74324608 763.47807693 C191.75934009 763.4782965 190.77543409 763.47851607 189.76171277 763.47874229 C188.28229623 763.4790697 188.28229623 763.4790697 186.77299249 763.47940373 C184.77439713 763.4798472 182.77580178 763.48029376 180.77720642 763.48074341 C179.29014458 763.48107555 179.29014458 763.48107555 177.77304108 763.48141441 C161.73653166 763.48535592 145.70006787 763.50278668 129.66357605 763.52610293 C113.19579943 763.54985247 96.72804565 763.56228057 80.26025164 763.56344485 C71.015892 763.56436006 61.77159165 763.57007249 52.52724838 763.58826447 C44.64817298 763.6037147 36.76917516 763.60875733 28.89008747 763.60052636 C24.87408534 763.59663603 20.85823919 763.59746938 16.84225655 763.61158371 C13.15537857 763.62442185 9.46877217 763.62303942 5.78189404 763.610993 C3.83752675 763.60814364 1.89315432 763.61989674 -0.05117476 763.63241506 C-19.18161627 763.52640721 -35.71530375 758.3844351 -50.69837952 746.24050903 C-51.40478577 745.69781372 -52.11119202 745.15511841 -52.83900452 744.59597778 C-66.70861856 733.37469555 -75.93574948 715.76131231 -78.69837952 698.24050903 C-79.4411118 689.67633013 -79.23930778 681.04972209 -79.20631409 672.46180725 C-79.21092747 669.84371217 -79.21728332 667.22561967 -79.22522306 664.60753256 C-79.2396048 658.93325023 -79.23927193 653.2591204 -79.22903442 647.58483124 C-79.21385223 639.14679228 -79.2216664 630.70888104 -79.23386765 622.27084283 C-79.25489345 607.19745706 -79.25311997 592.12413925 -79.241552 577.05074707 C-79.23147902 563.8601899 -79.22886799 550.6696576 -79.23364258 537.47909737 C-79.23394812 536.60321635 -79.23425366 535.72733533 -79.23456846 534.82491246 C-79.23581386 531.26919495 -79.23708747 527.71347745 -79.23840751 524.15775996 C-79.25063569 490.82196757 -79.23956189 457.4862184 -79.21801993 424.15043269 C-79.1990367 394.54916872 -79.20073831 364.94797358 -79.21986389 335.34671021 C-79.24129291 302.0693249 -79.24977004 268.79197775 -79.23741484 235.51458651 C-79.23613201 231.96575933 -79.23488065 228.41693213 -79.23364258 224.86810493 C-79.23332627 223.99432896 -79.23300996 223.12055298 -79.23268406 222.22029894 C-79.22813867 209.03901081 -79.23344685 195.8577503 -79.24356079 182.67646599 C-79.25500573 167.68600884 -79.25212157 152.69563012 -79.23043782 137.70518272 C-79.218709 129.3207533 -79.21790222 120.9364938 -79.23302251 112.55206885 C-79.2430736 106.28639444 -79.23214016 100.02091953 -79.21312422 93.75526959 C-79.2086628 91.22453272 -79.21091398 88.69377305 -79.22062737 86.16305088 C-79.27748206 70.11701363 -78.50190296 56.40724277 -70.88587952 41.92800903 C-70.53896057 41.25560181 -70.19204163 40.58319458 -69.83460999 39.89041138 C-66.98990371 34.51650025 -63.80396532 29.74477775 -59.69837952 25.24050903 C-58.97134827 24.42195435 -58.24431702 23.60339966 -57.49525452 22.76004028 C-41.73347743 5.95595213 -22.36974418 -0.09115328 0 0 Z " fill="#00355E" transform="translate(78.69837951660156,1080.7594909667969)"/>
<path d="M0 0 C0.1713468 72.35719658 0.3303482 144.71441751 0.4234314 217.07176208 C0.42481197 218.14219622 0.42619254 219.21263035 0.42761494 220.31550188 C0.45754207 243.57735479 0.48524417 266.83920984 0.51065329 290.10106811 C0.52312697 301.50821581 0.53609246 312.91536292 0.54931641 324.32250977 C0.550624 325.4576749 0.55193159 326.59284003 0.5532788 327.76240411 C0.59591358 364.57493285 0.67104243 401.38730837 0.76297221 438.19974424 C0.85724875 476.02049639 0.91884292 513.8411637 0.9391499 551.66203137 C0.94203157 557.0005325 0.94528794 562.33903334 0.94877243 567.6775341 C0.94978378 569.25361771 0.94978378 569.25361771 0.95081555 570.86154139 C0.96264563 587.79440283 1.00906064 604.72700243 1.06832034 621.65975697 C1.12712128 638.67140261 1.1496979 655.68278793 1.13501377 672.69453169 C1.12739167 682.80922071 1.14782739 692.92295905 1.20797543 703.03747689 C1.245389 709.78852383 1.24669848 716.53894607 1.21831814 723.29003562 C1.20317406 727.14073806 1.20404253 730.98963927 1.24883182 734.84015078 C1.29667517 738.98460057 1.26751378 743.12490526 1.23047829 747.26946354 C1.25674842 748.47037698 1.28301856 749.67129042 1.31008476 750.90859517 C1.14962892 758.79916555 1.14962892 758.79916555 -2.13850696 762.23375802 C-4.68785617 764.04886769 -7.23086613 765.54726092 -10 767 C-11.61464237 767.97916801 -13.22594229 768.96389569 -14.83203125 769.95703125 C-38.93250018 783.92577088 -63.63617764 794.34790655 -90.4375 802 C-91.9548877 802.43638794 -91.9548877 802.43638794 -93.50292969 802.8815918 C-94.9536084 803.28051636 -94.9536084 803.28051636 -96.43359375 803.6875 C-97.26947021 803.91824219 -98.10534668 804.14898438 -98.96655273 804.38671875 C-103.25737742 805.25420781 -107.64408746 805.56440875 -112 806 C-112.33 792.47 -112.66 778.94 -113 765 C-116.5475 766.918125 -120.095 768.83625 -123.75 770.8125 C-185.0062554 803.05927834 -257.96573353 813.05875276 -324.78564453 793.17089844 C-330.61315616 791.33875193 -336.32538033 789.25930604 -342 787 C-342.75684082 786.69868164 -343.51368164 786.39736328 -344.29345703 786.08691406 C-361.80961544 778.97509035 -377.96036531 769.4186271 -393 758 C-393.87785156 757.33484375 -394.75570312 756.6696875 -395.66015625 755.984375 C-410.48752424 744.42325765 -424.58316451 730.94973247 -436 716 C-436.48049805 715.37416016 -436.96099609 714.74832031 -437.45605469 714.10351562 C-471.0183364 670.06478335 -490.95196298 613.58883433 -491.203125 558.05078125 C-491.20882507 557.03565964 -491.21452515 556.02053802 -491.22039795 554.97465515 C-491.22978331 552.8342694 -491.23635596 550.69386961 -491.24023438 548.5534668 C-491.24984046 545.36544687 -491.28088561 542.17810096 -491.3125 538.99023438 C-491.46495875 509.48226314 -486.23993845 480.98207103 -477 453 C-476.7829541 452.33548828 -476.5659082 451.67097656 -476.34228516 450.98632812 C-465.68152035 418.96306228 -447.38623777 387.84017558 -423.69580078 363.7265625 C-422.47422259 362.48282496 -421.25991676 361.23192964 -420.05029297 359.9765625 C-410.92552401 350.50782543 -401.68319768 341.6847646 -391 334 C-390.06704102 333.32445068 -390.06704102 333.32445068 -389.11523438 332.63525391 C-353.23467074 306.84271809 -312.75515894 291.15670646 -269 285 C-268.2054541 284.88285645 -267.4109082 284.76571289 -266.59228516 284.64501953 C-226.15963514 278.92478126 -166.96871118 278.51564441 -130 297 C-130.0129051 295.73624605 -130.0258102 294.4724921 -130.03910637 293.17044258 C-130.34251419 263.15109316 -130.57326337 233.1321401 -130.71491461 203.11163253 C-130.73242388 199.41426275 -130.75054445 195.71689621 -130.76904297 192.01953125 C-130.77271531 191.28347251 -130.77638766 190.54741376 -130.78017129 189.78905021 C-130.84104119 177.88072702 -130.95139548 165.9733529 -131.08013915 154.06559218 C-131.21120161 141.841129 -131.28885163 129.61716178 -131.31723893 117.39202487 C-131.33642198 109.85171063 -131.39692625 102.31407881 -131.51083054 94.77459078 C-131.59380134 88.98672803 -131.60233928 83.20057198 -131.58350754 77.41223335 C-131.58735349 75.04258166 -131.61513253 72.67282678 -131.66887665 70.30378151 C-132.0453251 52.85114285 -132.0453251 52.85114285 -128.61612749 48.07090902 C-124.89514343 44.41980442 -120.67871335 42.21046764 -116 40 C-114.61329614 39.13242904 -113.23609988 38.24898318 -111.87890625 37.3359375 C-108.87405034 35.55921469 -105.86773001 33.78735125 -102.83837891 32.05273438 C-101.10839455 31.06207136 -99.3878344 30.05500258 -97.66796875 29.046875 C-69.34211406 13.11965156 -32.93750244 0 0 0 Z M-317 420 C-320.17964126 423.54427902 -323.13916164 427.1949719 -326 431 C-326.59039063 431.77472656 -327.18078125 432.54945313 -327.7890625 433.34765625 C-359.40938333 476.59097172 -367.37840585 535.24060471 -359.51123047 587.22998047 C-353.58040367 622.34323119 -340.04285001 655.3343493 -310.5 677.125 C-296.7049836 686.83310135 -281.41578758 692.56209882 -265 696 C-263.89269531 696.24492188 -262.78539063 696.48984375 -261.64453125 696.7421875 C-218.47918552 704.57093343 -172.50355258 689.59034978 -135 669 C-132.8230904 667.23360943 -132.8230904 667.23360943 -132.75801504 665.02676713 C-132.76181224 664.21036842 -132.76560944 663.39396971 -132.76952171 662.55283165 C-132.76902301 661.61181614 -132.76852431 660.67080064 -132.7680105 659.70126951 C-132.78258544 658.14001039 -132.78258544 658.14001039 -132.79745483 656.54721069 C-132.79982954 655.44702626 -132.80220424 654.34684182 -132.8046509 653.21331847 C-132.81512352 649.50197471 -132.84000918 645.79086398 -132.86474609 642.07958984 C-132.87516513 639.42908124 -132.88479017 636.77858091 -132.89341736 634.12806702 C-132.91362387 628.40894668 -132.94119891 622.6898996 -132.97373581 616.97083664 C-133.02076846 608.70197157 -133.05675496 600.43308768 -133.09001906 592.16415711 C-133.14428501 578.74937026 -133.20752228 565.33464123 -133.27636719 551.91992188 C-133.34323658 538.88641193 -133.40590203 525.85289299 -133.46289062 512.81933594 C-133.46640307 512.01635957 -133.46991551 511.21338321 -133.47353439 510.38607423 C-133.49112873 506.35790063 -133.50864018 502.32972667 -133.52611041 498.30155253 C-133.67122092 464.86763617 -133.83087659 431.43380348 -134 398 C-137.02767647 396.54847604 -140.05802692 395.10261955 -143.08886719 393.65771484 C-144.36550735 393.04554359 -144.36550735 393.04554359 -145.66793823 392.42100525 C-152.08482703 389.36677025 -158.47055048 386.77689729 -165.25 384.625 C-166.76303711 384.13277954 -166.76303711 384.13277954 -168.30664062 383.63061523 C-176.12126208 381.14636057 -183.88328431 379.19189636 -192 378 C-193.21171875 377.81824219 -194.4234375 377.63648438 -195.671875 377.44921875 C-240.1749067 372.09335532 -285.98184032 387.5620713 -317 420 Z " fill="#00345E" transform="translate(2606,1066)"/>
<path d="M0 0 C60.054356 -0.94387986 121.08025806 15.95203436 168.1640625 54.125 C168.75058594 54.59728027 169.33710937 55.06956055 169.94140625 55.55615234 C184.65449301 67.50439123 197.95500632 80.83239575 209.1640625 96.125 C209.58880859 96.69428223 210.01355469 97.26356445 210.45117188 97.85009766 C216.96808209 106.5927151 222.77443407 115.64907062 228.1640625 125.125 C228.52854492 125.75680176 228.89302734 126.38860352 229.26855469 127.03955078 C244.97233151 154.47611409 253.99415492 185.08128267 259.1640625 216.125 C259.4118042 217.60299072 259.4118042 217.60299072 259.66455078 219.11083984 C270.20104698 285.23906673 256.47849623 358.26489884 217.32421875 413.14453125 C205.32843247 429.61985734 191.91278341 445.23166317 175.82177734 457.82666016 C174.63101799 458.75927551 173.44431037 459.6970728 172.26025391 460.63818359 C162.63515987 468.2780589 152.93265614 475.19985901 142.1640625 481.125 C141.34228516 481.58229492 140.52050781 482.03958984 139.67382812 482.51074219 C101.98918184 503.32924489 60.95232992 514.87895522 18.1640625 519.125 C17.2472168 519.2178125 16.33037109 519.310625 15.38574219 519.40625 C4.74699382 520.35619971 -5.91182745 520.45226047 -16.5859375 520.5 C-18.12799362 520.50784012 -18.12799362 520.50784012 -19.70120239 520.51583862 C-43.13601924 520.57010726 -66.22910359 518.2541011 -89.46676636 515.40457153 C-92.64717931 515.02927027 -95.83295112 514.71027873 -99.02027893 514.39952087 C-100.8359375 514.125 -100.8359375 514.125 -102.8359375 513.125 C-102.82211061 514.33721663 -102.80828371 515.54943325 -102.79403782 516.79838371 C-102.46893495 545.59564423 -102.22171445 574.39287286 -102.06995756 603.19154476 C-102.05119771 606.73870233 -102.0317828 610.28585602 -102.01196289 613.83300781 C-102.00802823 614.53916041 -102.00409358 615.24531301 -102.00003969 615.97286417 C-101.93482772 627.39629716 -101.81659508 638.81859402 -101.67864556 650.24135374 C-101.53820364 661.96859977 -101.45502162 673.69525225 -101.42461008 685.42330468 C-101.40506213 692.00875803 -101.35917386 698.59163787 -101.24998665 705.17626572 C-101.14799393 711.37739342 -101.11679392 717.57489428 -101.13932228 723.77678108 C-101.13520283 726.04971236 -101.10545425 728.32276753 -101.04785538 730.59497261 C-100.64509922 747.30601403 -100.64509922 747.30601403 -104.29476237 752.00209284 C-107.7943386 755.18959976 -111.68449033 757.33782549 -115.98106277 759.27038598 C-118.69584757 760.52119452 -121.19519185 762.0933801 -123.734375 763.6640625 C-125.55527863 764.70085974 -127.3808333 765.7295309 -129.2109375 766.75 C-130.69025757 767.57709473 -130.69025757 767.57709473 -132.19946289 768.42089844 C-162.7464383 785.33220393 -196.77378651 797.63044442 -231.8359375 800.125 C-233.52336356 798.43757394 -232.96112486 796.33545456 -232.96128666 794.02210677 C-232.96379018 792.90686298 -232.9662937 791.7916192 -232.96887308 790.64258015 C-232.96653192 789.3994883 -232.96419075 788.15639645 -232.96177864 786.87563515 C-232.96323208 785.56351374 -232.96468552 784.25139233 -232.96618301 782.89950967 C-232.97010877 779.22418898 -232.96773062 775.54889425 -232.96440505 771.87357395 C-232.96188448 767.88768886 -232.96512182 763.90180798 -232.96764839 759.91592348 C-232.97127327 752.91910459 -232.97114245 745.92229341 -232.96860123 738.92547417 C-232.96483262 728.52118248 -232.96674524 718.11689734 -232.96980953 707.7126057 C-232.97508712 689.1344555 -232.97461416 670.55630873 -232.97173062 651.97815819 C-232.96921933 635.7192781 -232.96855637 619.46039926 -232.96975327 603.20151901 C-232.96982965 602.12483168 -232.96990604 601.04814434 -232.96998474 599.93883012 C-232.97029605 595.56865709 -232.97061445 591.19848407 -232.9709445 586.82831104 C-232.97400662 545.79437702 -232.97122517 504.76044519 -232.9658476 463.72651151 C-232.96110233 427.23987368 -232.9615257 390.75323935 -232.96630859 354.26660156 C-232.97165907 313.31280094 -232.97378882 272.35900224 -232.97069633 231.40520132 C-232.97037559 227.04217172 -232.97006275 222.67914212 -232.96975327 218.31611252 C-232.96967419 217.24175336 -232.96959511 216.16739421 -232.96951364 215.06047872 C-232.96837438 198.8099376 -232.96970977 182.55939789 -232.97223282 166.30885696 C-232.97508644 147.83659087 -232.97438936 129.36432875 -232.96895207 110.89206316 C-232.96600681 100.54361152 -232.96583699 90.1951685 -232.96959825 79.84671708 C-232.97183089 72.9449356 -232.97046283 66.04316105 -232.96609348 59.14138061 C-232.96370157 55.20187109 -232.96292839 51.26237874 -232.96649946 47.32286973 C-232.97029704 43.09058101 -232.9664564 38.85833494 -232.96177864 34.62604713 C-232.96411981 33.38763762 -232.96646097 32.1492281 -232.96887308 30.87329102 C-232.96636957 29.7530402 -232.96386605 28.63278938 -232.96128666 27.47859156 C-232.9612189 26.50970768 -232.96115115 25.5408238 -232.96108133 24.54257981 C-232.8359375 22.125 -232.8359375 22.125 -231.8359375 19.125 C-229.33682987 17.87544618 -227.66986617 18.00582446 -224.87304688 18.0138855 C-223.82244583 18.0142128 -222.77184479 18.0145401 -221.68940735 18.01487732 C-220.5311998 18.02011917 -219.37299225 18.02536102 -218.1796875 18.03076172 C-215.65584322 18.03355047 -213.13199881 18.03622009 -210.6081543 18.03878784 C-209.24840272 18.04178448 -207.88865134 18.04486707 -206.52890015 18.04803085 C-202.30414703 18.05646077 -198.07948437 18.05097989 -193.85473633 18.04202271 C-193.13967202 18.0405517 -192.42460772 18.03908069 -191.68787479 18.03756511 C-190.22457621 18.03449362 -188.76127773 18.03137357 -187.29797935 18.02820611 C-177.46596767 18.00712244 -167.63424497 17.99294505 -157.80224609 18.02539062 C-151.17002954 18.04717523 -144.53833303 18.0433837 -137.90614891 18.01198208 C-134.40843922 17.99636638 -130.91172143 17.99234737 -127.4140625 18.01974106 C-109.75970251 18.14894143 -94.30033217 16.26870968 -77.44681454 10.92053127 C-71.63417385 9.14942624 -65.67295209 8.0231095 -59.7109375 6.875 C-58.46868408 6.63177002 -57.22643066 6.38854004 -55.9465332 6.13793945 C-37.4025786 2.60276463 -18.85283439 0.61434898 0 0 Z M-102.8359375 112.125 C-102.8359375 212.445 -102.8359375 312.765 -102.8359375 416.125 C-80.95379119 421.46222448 -80.95379119 421.46222448 -58.8359375 425.125 C-58.12203857 425.2192627 -57.40813965 425.31352539 -56.67260742 425.41064453 C-22.29474314 429.45339748 13.98110837 425.59863687 45.1640625 410.125 C45.80424316 409.81304688 46.44442383 409.50109375 47.10400391 409.1796875 C60.31313023 402.68566786 71.45724137 394.22911928 82.1640625 384.125 C82.90140625 383.45210937 83.63875 382.77921875 84.3984375 382.0859375 C105.1707604 362.41852539 117.64360228 334.55723203 124.1640625 307.125 C124.60878906 305.26488281 124.60878906 305.26488281 125.0625 303.3671875 C135.49136158 255.5596339 129.18730306 202.45262553 102.7265625 160.8125 C81.68542104 128.65731972 50.5976415 108.67673503 13.3059082 100.63354492 C-25.54024277 92.72583555 -65.67216767 100.51132193 -102.8359375 112.125 Z " fill="#00355E" transform="translate(1276.8359375,1344.875)"/>
<path d="M0 0 C0.77467621 0.00060425 1.54935242 0.0012085 2.34750366 0.00183105 C46.54555172 0.09524291 87.91394584 11.19586446 128.125 29.1875 C128.10405273 28.60782471 128.08310547 28.02814941 128.06152344 27.4309082 C127.97803193 24.78745076 127.92623847 22.1442712 127.875 19.5 C127.84148438 18.58798828 127.80796875 17.67597656 127.7734375 16.73632812 C127.76054687 15.85009766 127.74765625 14.96386719 127.734375 14.05078125 C127.71342773 13.23907471 127.69248047 12.42736816 127.67089844 11.59106445 C128.34495874 8.023256 129.42693097 6.65301758 132.125 4.1875 C135.54891519 3.42068896 138.93318686 3.50475287 142.4296875 3.54052734 C143.47723206 3.53176575 144.52477661 3.52300415 145.60406494 3.51397705 C149.06979687 3.4919546 152.5342549 3.506547 156 3.5234375 C158.40608974 3.52007022 160.81217781 3.51521833 163.21826172 3.50894165 C168.26220893 3.50156641 173.30571358 3.5122975 178.34960938 3.53564453 C184.81988754 3.56413182 191.28912879 3.54773146 197.7593689 3.51778221 C202.72818842 3.49972734 207.6967615 3.50545913 212.66558838 3.51842117 C215.05145388 3.52176015 217.43734165 3.51765093 219.82318115 3.50602341 C223.15616242 3.4933453 226.48745709 3.51265155 229.8203125 3.54052734 C230.80952698 3.53040619 231.79874146 3.52028503 232.81793213 3.50985718 C234.18060211 3.53100586 234.18060211 3.53100586 235.57080078 3.55258179 C236.75212082 3.55540948 236.75212082 3.55540948 237.95730591 3.5582943 C241.29340221 4.52664625 242.26807189 6.29906455 244.125 9.1875 C244.51451329 11.93709345 244.67391862 14.28452322 244.64512444 17.02964592 C244.65273578 17.81672336 244.66034712 18.60380079 244.66818911 19.41472906 C244.68886607 22.06238552 244.68100102 24.70918799 244.67330933 27.35690308 C244.68221177 29.27014541 244.69283909 31.18338037 244.70504677 33.09660447 C244.73345547 38.36218036 244.73673246 43.62752044 244.73585296 48.89316201 C244.73914506 54.5688392 244.76526988 60.24441861 244.78823853 65.92004395 C244.83396704 78.33304367 244.84978232 90.74597507 244.85989141 103.1590476 C244.86640121 110.90663137 244.87944351 118.65419522 244.8938942 126.40176773 C244.93302735 147.84442054 244.96599848 169.28704599 244.97164726 190.72973442 C244.97183538 191.41557497 244.97202351 192.10141552 244.97221733 192.80803912 C244.97297429 195.5874771 244.97370229 198.36691507 244.97442329 201.14635306 C244.97496673 203.23835647 244.97552009 205.33035987 244.97607422 207.42236328 C244.97633829 208.45927918 244.97633829 208.45927918 244.97660769 209.51714287 C244.98241984 231.2422201 245.02662336 252.96694159 245.09912109 274.69189453 C245.18055366 299.09496039 245.22792504 323.49772048 245.22856629 347.90094101 C245.22973691 360.82392176 245.24681545 373.74644457 245.30456161 386.66930771 C245.35349564 397.67083351 245.36821922 408.67173436 245.33806656 419.67333947 C245.32369016 425.28873768 245.3256027 430.9029007 245.37088776 436.51816177 C245.41193509 441.65707458 245.40699927 446.79379762 245.36513807 451.93268491 C245.35812209 453.79336379 245.36808036 455.65419852 245.39654694 457.51467286 C245.59582173 471.43356125 245.59582173 471.43356125 241.93244195 475.80210137 C239.3897994 477.61718062 236.9804965 478.93848905 234.125 480.1875 C233.03832031 480.8465332 231.95164062 481.50556641 230.83203125 482.18457031 C227.60284336 483.94842159 224.37188504 485.70635814 221.125 487.4375 C220.21593903 487.92239395 220.21593903 487.92239395 219.28851318 488.41708374 C201.69274893 497.76198741 183.48536075 505.24525709 164.625 511.625 C162.85600342 512.2269519 162.85600342 512.2269519 161.05126953 512.84106445 C151.4311931 515.99771458 142.14116613 517.96168531 132.125 520.1875 C131.795 501.0475 131.465 481.9075 131.125 462.1875 C126.175 467.1375 121.225 472.0875 116.125 477.1875 C85.79071645 502.60271054 50.58268558 516.1949078 10.78125 516.390625 C9.82223282 516.39763931 8.86321564 516.40465363 7.87513733 516.41188049 C4.79170999 516.42930574 1.7084748 516.43573417 -1.375 516.4375 C-2.95584885 516.43851212 -2.95584885 516.43851212 -4.56863403 516.43954468 C-20.53293371 516.42329966 -36.1160934 515.97440119 -51.875 513.1875 C-52.86822266 513.01589355 -53.86144531 512.84428711 -54.88476562 512.66748047 C-99.20282913 504.77570563 -141.2384323 486.32779738 -174.37890625 455.49609375 C-176.58365156 453.45696311 -178.83331814 451.50229213 -181.125 449.5625 C-185.11424608 446.08200393 -188.47854059 442.23793606 -191.875 438.1875 C-192.59042969 437.383125 -193.30585938 436.57875 -194.04296875 435.75 C-240.38749027 382.52562291 -254.15119298 310.8329601 -250.67285156 242.19873047 C-246.24792541 181.02621365 -220.40722083 121.42545942 -177.875 77.1875 C-177.22644043 76.5063916 -176.57788086 75.8252832 -175.90966797 75.12353516 C-165.6116962 64.35865283 -154.99097768 54.84754669 -142.875 46.1875 C-141.81410156 45.40375 -140.75320312 44.62 -139.66015625 43.8125 C-99.0471644 14.54187524 -49.81834777 -0.07177383 0 0 Z M-61.875 126.1875 C-63.15503906 127.26837891 -63.15503906 127.26837891 -64.4609375 128.37109375 C-70.70439573 133.75967847 -75.88705178 139.63069285 -80.875 146.1875 C-81.28250488 146.72004395 -81.69000977 147.25258789 -82.10986328 147.80126953 C-103.38481399 175.82133735 -113.24894814 209.52331104 -116.875 244.1875 C-117.00648438 245.42371094 -117.13796875 246.65992188 -117.2734375 247.93359375 C-121.04406009 291.1938448 -114.45235638 338.91398137 -85.875 373.1875 C-68.58533671 393.74668295 -45.85441796 406.32934202 -19.875 412.1875 C-18.77792725 412.4352417 -18.77792725 412.4352417 -17.65869141 412.68798828 C10.26749282 418.67703688 37.39174163 415.07983778 64.125 406.1875 C64.7967627 405.96755371 65.46852539 405.74760742 66.16064453 405.52099609 C82.87274288 399.95886036 98.77036652 391.71785193 114.125 383.1875 C114.125 297.0575 114.125 210.9275 114.125 122.1875 C57.14695812 91.10856807 -9.04383342 79.66095904 -61.875 126.1875 Z " fill="#00345E" transform="translate(3152.875,1348.8125)"/>
<path d="M0 0 C0.9276416 0.18224121 1.8552832 0.36448242 2.81103516 0.55224609 C9.25621276 1.8530179 15.63307341 3.36136074 22 5 C23.12196777 5.28182129 23.12196777 5.28182129 24.26660156 5.56933594 C36.72035669 8.74648765 48.33283167 13.6585162 60 19 C61.08909668 19.49306641 61.08909668 19.49306641 62.20019531 19.99609375 C77.31083806 26.90955346 91.42263715 36.13975938 104 47 C104.76828125 47.65871094 105.5365625 48.31742188 106.328125 48.99609375 C108.93190708 51.2849022 111.47273801 53.62688307 114 56 C114.52609863 56.49209961 115.05219727 56.98419922 115.59423828 57.49121094 C128.84577928 69.9889103 140.13211911 84.04756378 149 100 C149.42522949 100.76296387 149.85045898 101.52592773 150.28857422 102.31201172 C164.56636344 128.18394549 172.87086225 154.72906356 177 184 C177.1045752 184.72904541 177.20915039 185.45809082 177.31689453 186.20922852 C178.30600925 194.35482708 178.22245064 202.57080096 178.24023438 210.76391602 C178.24956207 213.31760495 178.2804531 215.87034153 178.3125 218.42382812 C178.3732503 239.11689866 176.45227179 259.18410435 175 280 C59.17 280 -56.66 280 -176 280 C-170.71654256 309.93959217 -164.07996802 338.22020538 -144 362 C-143.15824219 363.00417969 -142.31648438 364.00835938 -141.44921875 365.04296875 C-119.20535327 390.80674262 -85.44696426 403.56701355 -52.16064453 406.77294922 C8.84271647 411.15523917 65.27565095 390.80630865 119 364 C120.54377522 363.23987802 122.08799317 362.48065401 123.6328125 361.72265625 C129.00958089 359.07032135 134.34108437 356.38789618 139.56640625 353.4453125 C140.33710449 353.01766602 141.10780273 352.59001953 141.90185547 352.14941406 C143.38773074 351.32092988 144.86527197 350.47725446 146.33251953 349.61621094 C148.35546875 348.4921875 148.35546875 348.4921875 152 347 C153.65 347.66 155.3 348.32 157 349 C157 385.3 157 421.6 157 459 C141.22385965 466.88807018 141.22385965 466.88807018 135.609375 469.10546875 C134.9898143 469.35143799 134.3702536 469.59740723 133.73191833 469.85083008 C131.74097348 470.63771813 129.74609252 471.41377091 127.75 472.1875 C127.04646393 472.4617984 126.34292786 472.7360968 125.61807251 473.01870728 C39.03505377 506.7330371 -56.0957669 530.19088139 -157 492 C-177.55112516 482.955649 -196.64106934 472.29718097 -214 458 C-214.54930176 457.55221191 -215.09860352 457.10442383 -215.66455078 456.64306641 C-228.98594206 445.72718981 -241.59920951 433.76731552 -252 420 C-252.47614746 419.37851074 -252.95229492 418.75702148 -253.44287109 418.11669922 C-297.54774073 360.25736977 -312.60552532 286.37089868 -303.609375 214.89648438 C-297.35499584 169.87074549 -281.20053738 126.91693591 -253 91 C-252.27683594 90.06542969 -251.55367187 89.13085938 -250.80859375 88.16796875 C-236.91141777 70.68772714 -220.9472475 56.19220798 -203 43 C-202.40654785 42.56042969 -201.8130957 42.12085938 -201.20166016 41.66796875 C-182.79022604 28.20009822 -161.52894099 18.30950327 -140 11 C-138.83476807 10.59128662 -138.83476807 10.59128662 -137.64599609 10.17431641 C-124.36178925 5.53392365 -110.8446774 2.45580869 -97 0 C-96.09797852 -0.16661133 -95.19595703 -0.33322266 -94.26660156 -0.50488281 C-64.42357498 -5.78673765 -29.74535016 -5.94223333 0 0 Z M-127 119 C-127.8353125 119.69738281 -128.670625 120.39476562 -129.53125 121.11328125 C-152.5399479 141.10386291 -167.98267758 169.6002617 -172 200 C-172 201.32 -172 202.64 -172 204 C-96.76 204 -21.52 204 56 204 C56 170.95048077 44.20470222 143.28309299 20.88671875 119.87890625 C1.05168531 101.27676337 -26.09049954 93.18360956 -52.83203125 93.75 C-79.20123854 94.7616711 -106.4312303 101.73692543 -127 119 Z " fill="#00345E" transform="translate(1887,1356)"/>
<path d="M0 0 C19.44536314 -0.39816388 38.88989296 -0.69739997 58.33849525 -0.88080692 C67.37028353 -0.9682545 76.39953105 -1.08732759 85.4296875 -1.2824707 C93.30607125 -1.4525986 101.18061473 -1.56174387 109.05878484 -1.59950441 C113.22657457 -1.62156315 117.38910315 -1.67287772 121.55519485 -1.79741096 C148.88327193 -2.58295369 148.88327193 -2.58295369 156.04193115 3.64944458 C159.19282665 7.08713603 161.59081146 10.76521193 163.79314804 14.8635273 C165.68910678 18.21991585 168.11551837 21.0984467 170.5625 24.0625 C171.45233018 25.19678476 172.33942466 26.33322586 173.22265625 27.47265625 C176.26483885 31.35617707 179.38052945 35.17847717 182.5 39 C187.00767214 44.52333657 191.44842767 50.09184597 195.8359375 55.7109375 C199.33776247 60.18436708 202.90811164 64.59867202 206.5 69 C211.00759973 74.52339685 215.44842642 80.09184436 219.8359375 85.7109375 C223.33776247 90.18436708 226.90811164 94.59867202 230.5 99 C235.00165979 104.51611833 239.43749238 110.07658745 243.81835938 115.68896484 C248.0329764 121.07413791 252.3449949 126.37827265 256.67382812 131.671875 C259.17846895 134.73827541 261.66266939 137.80240188 264 141 C268.2653895 139.45972046 270.38903395 136.25384263 273 132.75 C276.90429537 127.64178073 280.91251774 122.66999754 285.125 117.8125 C289.34058562 112.94027902 293.47946956 108.02019782 297.54296875 103.01953125 C300.575999 99.29213477 303.63102459 95.58317771 306.6875 91.875 C310.33636968 87.4477971 313.98465049 83.0201511 317.625 78.5859375 C323.00012982 72.04207805 328.38767707 65.5127472 333.875 59.0625 C337.5741605 54.71364726 341.18245094 50.30499057 344.73046875 45.83203125 C347.66253509 42.17325655 350.64204538 38.55483126 353.625 34.9375 C354.22038574 34.21530273 354.81577148 33.49310547 355.42919922 32.74902344 C358.53998682 28.97761827 361.65405575 25.2089392 364.76953125 21.44140625 C365.38425293 20.69705322 365.99897461 19.9527002 366.63232422 19.18579102 C367.7929878 17.78040543 368.95468672 16.37587391 370.11767578 14.97241211 C370.65505371 14.32151611 371.19243164 13.67062012 371.74609375 13 C372.51132056 12.09395602 372.51132056 12.09395602 373.29200649 11.16960812 C375.04134947 9.03733953 375.04134947 9.03733953 376.41121769 6.67654514 C378.709024 3.09031779 380.4822252 0.4644378 384.66192436 -0.81454659 C387.9576537 -1.1085596 391.14512348 -1.11380769 394.45288086 -1.02172852 C395.69260651 -1.02304276 396.93233215 -1.02435699 398.20962524 -1.02571106 C401.5932972 -1.02053047 404.97196581 -0.97556626 408.3547523 -0.91254544 C411.89533133 -0.85610134 415.43598445 -0.85098288 418.97694397 -0.84031677 C425.67450824 -0.81239568 432.37074288 -0.73861559 439.06772286 -0.64817137 C446.69512114 -0.54740831 454.32258454 -0.49804954 461.9504832 -0.45291245 C477.63442427 -0.35895798 493.31704037 -0.20076178 509 0 C509.24802725 3.95752442 509.15722457 4.78451455 506.69140625 8.1640625 C505.66017104 9.32820874 504.61641715 10.48134744 503.5625 11.625 C502.4494765 12.87537325 501.33750612 14.12668469 500.2265625 15.37890625 C499.39946777 16.30147217 499.39946777 16.30147217 498.55566406 17.24267578 C496.44539222 19.62650138 494.43765933 22.08593909 492.4375 24.5625 C489.17221697 28.58358091 485.85442156 32.55345162 482.5 36.5 C479.12716411 40.46903543 475.78823355 44.46017021 472.5 48.5 C468.75147354 53.1053325 464.92915754 57.64204444 461.08374023 62.16625977 C458.2045468 65.55954109 455.36795763 68.98267786 452.5625 72.4375 C448.60556582 77.30049424 444.53564058 82.05700203 440.44384766 86.80615234 C436.64836633 91.22031766 432.94722087 95.70333198 429.27734375 100.22265625 C426.71795946 103.34396367 424.11406209 106.4245003 421.5 109.5 C418.12716411 113.46903543 414.78823355 117.46017021 411.5 121.5 C405.95807902 128.30413786 400.26691077 134.97975878 394.58398438 141.66601562 C389.09729486 148.12406926 383.66222871 154.61497616 378.3125 161.1875 C375.27632634 164.88014364 372.1815003 168.52121788 369.0859375 172.1640625 C366.18755177 175.5805954 363.328449 179.02504838 360.5 182.5 C357.21176132 186.5398361 353.87263519 190.53078881 350.5 194.5 C342.83131058 203.53082957 335.37885102 212.73119804 328 222 C329.29108381 224.76655418 330.7064804 227.04962067 332.65234375 229.3984375 C333.17562256 230.03515381 333.69890137 230.67187012 334.23803711 231.32788086 C334.79885986 232.00343018 335.35968262 232.67897949 335.9375 233.375 C337.12596555 234.82082144 338.31345009 236.26744978 339.5 237.71484375 C340.38945313 238.79934814 340.38945313 238.79934814 341.296875 239.90576172 C343.71897891 242.88408846 346.08084057 245.90732027 348.4375 248.9375 C353.11999801 254.94344387 357.9508352 260.81852561 362.80834961 266.68334961 C366.89251734 271.62534335 370.87891521 276.63225604 374.81640625 281.69140625 C378.46485231 286.36099173 382.22018942 290.93636479 386 295.5 C390.71437157 301.19305446 395.34559804 306.93763013 399.89111328 312.76611328 C405.4878411 319.92984327 411.25169014 326.95781501 417 334 C423.66041147 342.15958966 430.28860727 350.33533655 436.76611328 358.64111328 C441.01360837 364.06413134 445.40381037 369.3653179 449.79736328 374.67016602 C454.00261087 379.75887383 458.11137956 384.91349234 462.17236328 390.11767578 C465.57515461 394.47440345 469.05120943 398.76517612 472.5625 403.03515625 C479.60553329 411.6019227 486.61779655 420.19147631 493.4375 428.9375 C498.11731745 434.93830307 502.94358142 440.80962988 507.79736328 446.67016602 C511.9943068 451.7488252 516.10065348 456.88912039 520.14599609 462.08911133 C523.77175865 466.74255818 527.51887845 471.28130236 531.3203125 475.79296875 C533 478 533 478 534 481 C514.33742834 481.2572319 494.67519915 481.45106801 475.01129246 481.56993389 C465.88040913 481.62659882 456.75057261 481.70381621 447.62036133 481.82983398 C439.66016886 481.93965023 431.70073457 482.01048085 423.73980564 482.03497344 C419.52603224 482.04928674 415.3144273 482.08279142 411.10135078 482.16303062 C407.13042787 482.23804092 403.16255265 482.26066421 399.19098854 482.24418449 C397.73846069 482.24719608 396.28582471 482.26888781 394.8339119 482.31126022 C383.9051029 482.61439866 383.9051029 482.61439866 379.2237072 478.6473484 C376.92570706 475.86331317 374.95865787 473.02897457 373 470 C371.62470128 468.27509221 370.23136838 466.56425013 368.8125 464.875 C368.07 463.9675 367.3275 463.06 366.5625 462.125 C361.05614627 455.40478555 355.52515828 448.7047519 350 442 C343.11708947 433.64762255 336.23541508 425.29453749 329.38671875 416.9140625 C323.93970972 410.26354084 318.46695681 403.63412471 313 397 C306.12355828 388.65547241 299.24777077 380.31070452 292.40625 371.9375 C289.27823847 368.11888852 286.13915083 364.30945577 283 360.5 C278.46719034 354.99929652 273.93989039 349.49441093 269.4375 343.96875 C267.42799433 341.52127515 265.40513227 339.08657261 263.375 336.65625 C262.73626953 335.88861328 262.09753906 335.12097656 261.43945312 334.33007812 C260.16568037 332.79975497 258.88843859 331.27231134 257.60742188 329.74804688 C257.02541016 329.04744141 256.44339844 328.34683594 255.84375 327.625 C255.31974609 326.99851562 254.79574219 326.37203125 254.25585938 325.7265625 C253 324 253 324 252 321 C247.93044917 323.98482261 244.94817166 327.37263 241.9375 331.375 C238.09500639 336.37917772 234.14232255 341.24113634 230 346 C226.03117831 350.56953927 222.2063579 355.21512534 218.5 360 C214.26960114 365.45885043 209.86455059 370.7319214 205.34643555 375.9543457 C200.79330623 381.21948091 196.38426492 386.59353852 192 392 C190.500855 393.83403254 189.00084678 395.66735981 187.5 397.5 C185.30774854 400.1789992 183.11580532 402.85824208 180.92578125 405.5390625 C175.68432888 411.95281753 170.42108858 418.34837353 165.15356445 424.74072266 C161.92885454 428.65491932 158.70883634 432.57276747 155.5 436.5 C148.07221809 445.58907878 140.59597319 454.6385072 133.12890625 463.6953125 C132.50008545 464.45827637 131.87126465 465.22124023 131.22338867 466.00732422 C130.02203979 467.46493759 128.82039601 468.92230799 127.6184082 470.37939453 C127.07144287 471.04310059 126.52447754 471.70680664 125.9609375 472.390625 C125.48446777 472.96844727 125.00799805 473.54626953 124.51708984 474.14160156 C122.87899784 476.02299079 122.87899784 476.02299079 121.63925171 478.58067322 C117.3859395 482.47956323 112.82069908 481.65572061 107.25488281 481.56762695 C106.05460953 481.56835709 104.85433624 481.56908722 103.61769104 481.56983948 C100.33041661 481.56695384 97.04420794 481.54188944 93.75714588 481.50696969 C90.32054595 481.4757019 86.88392482 481.47277516 83.44720459 481.46684265 C76.9412228 481.45130528 70.43566137 481.41027884 63.92986465 481.3600952 C56.52247531 481.30419794 49.11506585 481.27671437 41.7075181 481.25161803 C26.47143533 481.19936242 11.23577188 481.11142288 -4 481 C-4.21264374 476.17504818 -3.26574319 474.54367168 -0.0625 470.875 C0.76121094 469.91335938 1.58492188 468.95171875 2.43359375 467.9609375 C3.70396484 466.49527344 3.70396484 466.49527344 5 465 C6.50630083 463.17184002 8.00646415 461.33860321 9.5 459.5 C63.5 393.5 117.5 327.5 171.5 261.5 C172.60214844 260.15035156 172.60214844 260.15035156 173.7265625 258.7734375 C175.29795796 256.85644304 176.87656188 254.94534301 178.4609375 253.0390625 C179.25757813 252.07742188 180.05421875 251.11578125 180.875 250.125 C181.95394531 248.82949219 181.95394531 248.82949219 183.0546875 247.5078125 C184.92515614 245.09648546 186.49040664 242.6489091 188 240 C187.45025513 239.33750244 187.45025513 239.33750244 186.8894043 238.66162109 C180.20256584 230.5948595 173.55680719 222.5066313 167.1159668 214.24169922 C163.63322653 209.78140337 160.07846232 205.38376062 156.5 201 C152.36559793 195.93458009 148.27624809 190.83933528 144.25 185.6875 C140.37306673 180.72850347 136.43576991 175.82702555 132.4375 170.96484375 C124.91595501 161.81604143 117.45398396 152.6248003 110.16455078 143.28979492 C106.12479905 138.12886254 101.98874369 133.04926163 97.84472656 127.97192383 C94.26615682 123.57960734 90.73867933 119.15148256 87.25 114.6875 C83.37306673 109.72850347 79.43576991 104.82702555 75.4375 99.96484375 C67.91595501 90.81604143 60.45398396 81.6248003 53.16455078 72.28979492 C49.12479905 67.12886254 44.98874369 62.04926163 40.84472656 56.97192383 C37.26615682 52.57960734 33.73867933 48.15148256 30.25 43.6875 C26.38334051 38.74164469 22.45739433 33.85242137 18.46875 29.00390625 C15.342294 25.19972166 12.2323171 21.38232293 9.125 17.5625 C8.56506348 16.87559082 8.00512695 16.18868164 7.42822266 15.48095703 C6.38745516 14.20125233 5.35147626 12.91763188 4.32128906 11.62939453 C3.28938998 10.35687154 2.21154188 9.12157259 1.1171875 7.90234375 C-0.43774599 5.25460735 -0.07316921 3.01912525 0 0 Z " fill="#00345E" transform="translate(483,1363)"/>
<path d="M0 0 C0.84046875 0.84691406 1.6809375 1.69382813 2.546875 2.56640625 C3.48917969 3.48164063 4.43148438 4.396875 5.40234375 5.33984375 C5.88106934 5.80874023 6.35979492 6.27763672 6.85302734 6.76074219 C9.08127841 8.87219281 11.46403626 10.77378004 13.859375 12.69140625 C17.43515969 15.57739418 20.90088818 18.53335429 24.296875 21.62890625 C27.71426872 24.74349293 31.2020985 27.72077245 34.796875 30.62890625 C39.25963713 34.23923067 43.52407033 38.01318554 47.765625 41.87890625 C50.3853231 44.20752678 53.0720281 46.42453572 55.796875 48.62890625 C60.25963713 52.23923067 64.52407033 56.01318554 68.765625 59.87890625 C71.3853231 62.20752678 74.0720281 64.42453572 76.796875 66.62890625 C81.25963713 70.23923067 85.52407033 74.01318554 89.765625 77.87890625 C92.3853231 80.20752678 95.0720281 82.42453572 97.796875 84.62890625 C102.25963713 88.23923067 106.52407033 92.01318554 110.765625 95.87890625 C113.3853231 98.20752678 116.0720281 100.42453572 118.796875 102.62890625 C123.25963713 106.23923067 127.52407033 110.01318554 131.765625 113.87890625 C134.3853231 116.20752678 137.0720281 118.42453572 139.796875 120.62890625 C144.25963713 124.23923067 148.52407033 128.01318554 152.765625 131.87890625 C155.3853231 134.20752678 158.0720281 136.42453572 160.796875 138.62890625 C165.25963713 142.23923067 169.52407033 146.01318554 173.765625 149.87890625 C176.3853231 152.20752678 179.0720281 154.42453572 181.796875 156.62890625 C186.25963713 160.23923067 190.52407033 164.01318554 194.765625 167.87890625 C197.3853231 170.20752678 200.0720281 172.42453572 202.796875 174.62890625 C207.25963713 178.23923067 211.52407033 182.01318554 215.765625 185.87890625 C218.3853231 188.20752678 221.0720281 190.42453572 223.796875 192.62890625 C228.25963713 196.23923067 232.52407033 200.01318554 236.765625 203.87890625 C239.3853231 206.20752678 242.0720281 208.42453572 244.796875 210.62890625 C249.25963713 214.23923067 253.52407033 218.01318554 257.765625 221.87890625 C260.3853231 224.20752678 263.0720281 226.42453572 265.796875 228.62890625 C270.25030333 232.23167973 274.50685686 235.9964097 278.73828125 239.85546875 C282.37652624 243.08822995 286.15467263 246.13703729 289.94921875 249.18359375 C292.296875 251.12890625 292.296875 251.12890625 293.66040039 252.78881836 C295.21667506 254.35729735 295.21667506 254.35729735 297.40820312 254.09643555 C298.20677734 253.90476807 299.00535156 253.71310059 299.828125 253.515625 C300.71886719 253.30470215 301.60960937 253.0937793 302.52734375 252.87646484 C306.98742352 251.67258929 311.39446297 250.34047787 315.796875 248.94140625 C324.25025773 246.30802263 332.73620898 243.88846748 341.296875 241.62890625 C349.51840176 239.45508501 357.67567283 237.15199819 365.796875 234.62890625 C375.00877114 231.76695794 384.28055849 229.21999822 393.60546875 226.75390625 C400.71911315 224.85919002 407.76700112 222.81294474 414.796875 220.62890625 C423.99855392 217.77013222 433.25964935 215.22432384 442.57470703 212.76269531 C449.99139881 210.78831622 457.33930253 208.64483518 464.671875 206.37890625 C488.86657968 198.9476321 511.16723217 197.81736195 536.296875 198.12890625 C540.44719137 207.53214961 544.1857355 216.99545011 547.609375 226.69140625 C548.27163086 228.53702148 548.27163086 228.53702148 548.94726562 230.41992188 C552.44537224 240.26069041 552.44537224 240.26069041 553.296875 245.12890625 C531.48949068 260.24611957 507.70306973 273.6287823 481.859375 280.25390625 C471.09151374 283.08465698 460.37406154 286.06067943 449.671875 289.12890625 C448.98239777 289.32615295 448.29292053 289.52339966 447.58255005 289.72662354 C440.86997689 291.64747216 434.16101997 293.58031477 427.46118164 295.54516602 C408.02104136 301.24440621 388.53808546 306.79325058 369.0534668 312.33813477 C364.96917626 313.50064568 360.88556419 314.66549878 356.80249023 315.83227539 C351.81564621 317.25730471 346.82773108 318.67852146 341.83899879 320.09692574 C339.95152759 320.63425506 338.06443719 321.17292389 336.1777401 321.71296501 C333.56443029 322.46068153 330.94977194 323.20348292 328.3347168 323.94506836 C327.56034271 324.16783951 326.78596863 324.39061066 325.98812866 324.62013245 C322.99629271 325.46404075 320.42212172 326.12890625 317.296875 326.12890625 C317.13832031 326.80953125 316.97976563 327.49015625 316.81640625 328.19140625 C314.91297973 336.09956504 312.58169952 343.82725985 310.1081543 351.57104492 C309.05531537 354.89051331 308.01787954 358.2147493 306.98046875 361.5390625 C305.17452484 367.32498958 303.36224435 373.10887568 301.54296875 378.890625 C301.3123877 379.62356781 301.08180664 380.35651062 300.84423828 381.11166382 C299.90433326 384.09902635 298.96425493 387.08633413 298.02368164 390.07348633 C295.42663203 398.32235958 292.84482576 406.57511709 290.30883789 414.84301758 C288.11495488 421.96665363 285.87867778 429.07718816 283.65136719 436.19042969 C281.51979927 442.99915573 279.39092735 449.80851887 277.296875 456.62890625 C275.20242536 463.45045251 273.07345843 470.26106185 270.94122314 477.07086182 C269.24831213 482.47801028 267.55789127 487.88593854 265.86694336 493.29370117 C265.44354154 494.64757384 265.02003813 496.00141474 264.59643555 497.35522461 C262.4845142 504.10512258 260.3767073 510.85610572 258.30078125 517.6171875 C255.78251471 525.81811714 253.21485494 534.0035573 250.65136719 542.19042969 C248.51979927 548.99915573 246.39092735 555.80851887 244.296875 562.62890625 C241.78013488 570.82599959 239.2136251 579.00748498 236.65136719 587.19042969 C234.51979927 593.99915573 232.39092735 600.80851887 230.296875 607.62890625 C228.20242536 614.45045251 226.07345843 621.26106185 223.94122314 628.07086182 C222.24831213 633.47801028 220.55789127 638.88593854 218.86694336 644.29370117 C218.44354154 645.64757384 218.02003813 647.00141474 217.59643555 648.35522461 C214.02602396 659.7665937 210.47819183 671.18378293 207.04296875 682.63671875 C206.27365467 685.17584706 205.50412207 687.71490917 204.734375 690.25390625 C204.54109619 690.90488281 204.34781738 691.55585937 204.14868164 692.2265625 C203.58069327 694.13678833 202.99951994 696.04307822 202.41796875 697.94921875 C202.0820874 699.06570801 201.74620605 700.18219727 201.40014648 701.33251953 C200.29332831 704.1378958 199.71552593 705.39251686 197.296875 707.12890625 C194.52539062 708.2956543 194.52539062 708.2956543 191.203125 709.390625 C190.00816406 709.78701172 188.81320312 710.18339844 187.58203125 710.59179688 C186.33292969 710.99591797 185.08382812 711.40003906 183.796875 711.81640625 C182.54777344 712.23212891 181.29867187 712.64785156 180.01171875 713.07617188 C170.71817272 716.12890625 170.71817272 716.12890625 167.296875 716.12890625 C167.87186374 700.13614536 169.18268468 684.25540834 170.66725922 668.32401657 C171.28767077 661.63887946 171.89118987 654.95217958 172.49609375 648.265625 C172.56784569 647.4736503 172.63959763 646.68167561 172.71352386 645.86570168 C174.63683975 624.608099 176.39825747 603.33691382 178.171875 582.06640625 C180.23933987 557.27589585 182.33368522 532.4885749 184.55078125 507.7109375 C184.6430751 506.67864958 184.73536896 505.64636166 184.83045959 504.58279228 C185.7196525 494.64197628 186.6131401 484.701566 187.51759052 474.76212597 C187.84699687 471.13572795 188.1737117 467.50909027 188.49995232 463.88240623 C188.6496427 462.22627006 188.80059729 460.57024748 188.95303535 458.91436195 C189.74952748 450.26172903 190.44951271 441.60677858 190.97119141 432.93286133 C191.02315391 432.15600857 191.07511641 431.37915581 191.12865353 430.57876205 C191.5177329 423.53592863 190.23650092 417.31680703 188.234375 410.56640625 C187.58358162 408.18032881 186.93520569 405.7935909 186.2890625 403.40625 C185.95745117 402.21112793 185.62583984 401.01600586 185.28417969 399.78466797 C183.65916546 393.76761481 182.25500016 387.70254727 180.859375 381.62890625 C180.6008374 380.53118896 180.3422998 379.43347168 180.07592773 378.30249023 C179.84075439 377.28614502 179.60558105 376.2697998 179.36328125 375.22265625 C179.15646729 374.33255859 178.94965332 373.44246094 178.73657227 372.52539062 C178.296875 370.12890625 178.296875 370.12890625 178.296875 366.12890625 C177.35896118 366.38414062 177.35896118 366.38414062 176.40209961 366.64453125 C159.27134304 371.2989722 142.10151996 375.7811134 124.90869141 380.19873047 C119.70192637 381.53966428 114.49890125 382.8947209 109.296875 384.25390625 C108.3788208 384.49375244 107.4607666 384.73359863 106.51489258 384.98071289 C104.69088837 385.45740629 102.86691347 385.93421183 101.04296875 386.41113281 C96.29474858 387.65222165 91.54576394 388.89037934 86.796875 390.12890625 C84.88020488 390.62889301 82.96353821 391.12889299 81.046875 391.62890625 C69.546875 394.62890625 69.546875 394.62890625 66.6706543 395.37915039 C64.75800821 395.878151 62.84541037 396.37733658 60.93286133 396.87670898 C56.0800629 398.14353695 51.22641388 399.40693128 46.37109375 400.6640625 C44.4088013 401.17297328 42.44656138 401.68208666 40.484375 402.19140625 C39.51983398 402.44148438 38.55529297 402.6915625 37.56152344 402.94921875 C32.57803935 404.24822313 27.61475261 405.59632823 22.66577148 407.02075195 C13.50498906 409.65003056 4.26243548 411.73557638 -5.04980469 413.7578125 C-13.30920681 415.56319638 -21.51017581 417.54377151 -29.703125 419.62890625 C-40.04394294 422.25764723 -50.41539505 424.65722983 -60.83984375 426.9296875 C-68.16276287 428.5361155 -75.43868608 430.27673875 -82.703125 432.12890625 C-91.08861141 434.26690006 -99.49800954 436.22324959 -107.953125 438.06640625 C-117.2473504 440.09384922 -126.48353538 442.28552976 -135.703125 444.62890625 C-146.04403822 447.25729362 -156.41538242 449.65722707 -166.83984375 451.9296875 C-174.16276287 453.5361155 -181.43868608 455.27673875 -188.703125 457.12890625 C-197.08861141 459.26690006 -205.49800954 461.22324959 -213.953125 463.06640625 C-223.2473504 465.09384922 -232.48353538 467.28552976 -241.703125 469.62890625 C-252.04403822 472.25729362 -262.41538242 474.65722707 -272.83984375 476.9296875 C-280.16276287 478.5361155 -287.43868608 480.27673875 -294.703125 482.12890625 C-303.08861141 484.26690006 -311.49800954 486.22324959 -319.953125 488.06640625 C-329.2473504 490.09384922 -338.48353538 492.28552976 -347.703125 494.62890625 C-358.03160338 497.25413302 -368.39011486 499.65308171 -378.80249023 501.92089844 C-387.46795449 503.82063238 -396.07402262 505.91383144 -404.66503906 508.12524414 C-420.30352305 512.12890625 -420.30352305 512.12890625 -426.703125 512.12890625 C-427.19390321 510.2151799 -427.66994142 508.29767376 -428.140625 506.37890625 C-428.40746094 505.3115625 -428.67429687 504.24421875 -428.94921875 503.14453125 C-429.68549868 499.73870452 -429.9767542 496.34970391 -430.25024414 492.87792969 C-430.33625381 491.80041443 -430.42226349 490.72289917 -430.51087952 489.61273193 C-430.57432053 488.79306946 -430.63776154 487.97340698 -430.703125 487.12890625 C-430.07198288 486.9116539 -429.44084076 486.69440155 -428.79057312 486.4705658 C-388.51158985 472.60529323 -388.51158985 472.60529323 -348.27694702 458.61203003 C-333.42910854 453.42164944 -318.56843019 448.26903771 -303.703125 443.12890625 C-287.79978143 437.62945087 -271.90184648 432.11513601 -256.015625 426.56640625 C-240.87565777 421.2785981 -225.72964885 416.00851338 -210.578125 410.75390625 C-209.55858734 410.40031036 -208.53904968 410.04671448 -207.48861694 409.68240356 C-199.18542808 406.80283214 -190.8819059 403.92422236 -182.57836914 401.0456543 C-130.6377841 383.11738534 -130.6377841 383.11738534 -78.828125 364.81640625 C-65.50815204 360.03944731 -52.1479878 355.38753558 -38.7522583 350.82733154 C-36.58143333 350.08742894 -34.4115377 349.34484108 -32.24169922 348.60205078 C-15.82271548 342.98807634 0.46920707 337.4713646 17.39941406 333.58935547 C20.17741606 332.91522889 22.88755648 332.06252812 25.609375 331.19140625 C31.39197881 329.34746371 37.23197471 327.82181474 43.109375 326.31640625 C51.21963233 324.2359172 59.26937364 322.00856412 67.296875 319.62890625 C76.04086949 317.03832894 84.81767516 314.658469 93.65234375 312.3984375 C101.58302615 310.35355486 109.43207477 308.07168359 117.28344727 305.74316406 C125.32767164 303.372844 133.41693964 301.21841287 141.54882812 299.16992188 C147.2259814 297.72685815 152.76347701 296.04905329 158.296875 294.12890625 C156.26019448 284.03497857 152.7627171 274.58248594 149.22460938 264.9309082 C148.44711923 262.79232678 147.68313998 260.64877896 146.93359375 258.50024414 C141.86507146 243.98309186 135.88693888 232.55457523 125.8145752 220.90792847 C123.87723894 218.63701603 122.10634697 216.2670894 120.359375 213.84765625 C119.84503906 213.14125 119.33070313 212.43484375 118.80078125 211.70703125 C118.30449219 211.02125 117.80820313 210.33546875 117.296875 209.62890625 C112.73292571 203.37805506 108.07419257 197.21815384 103.296875 191.12890625 C97.96614087 184.33158969 92.79870441 177.43221968 87.69848633 170.46069336 C81.87116358 162.51064733 75.88878726 154.68206395 69.90234375 146.8515625 C66.48694931 142.38379581 63.11106204 137.88866527 59.74609375 133.3828125 C57.08347607 129.83227121 54.38295418 126.3107893 51.6875 122.78515625 C45.82390742 115.11399001 40.00308638 107.4179995 34.296875 99.62890625 C28.72850392 92.02917562 23.05107454 84.51901335 17.328125 77.03515625 C12.15812866 70.27132674 7.04218519 63.46881381 1.94384766 56.65087891 C-2.5900661 50.59495896 -7.17050282 44.57596534 -11.765625 38.56640625 C-17.06696931 31.62486344 -22.3238429 24.65284147 -27.515625 17.62890625 C-28.38682983 16.4541272 -28.38682983 16.4541272 -29.27563477 15.25561523 C-29.81502686 14.52286377 -30.35441895 13.7901123 -30.91015625 13.03515625 C-31.3791333 12.39900391 -31.84811035 11.76285156 -32.33129883 11.10742188 C-33.90147024 8.84284292 -35.30749017 6.50423611 -36.703125 4.12890625 C-32.35173496 3.11655852 -27.99661869 2.1212414 -23.640625 1.12890625 C-22.41150391 0.84273437 -21.18238281 0.5565625 -19.91601562 0.26171875 C-18.72041016 -0.00898438 -17.52480469 -0.2796875 -16.29296875 -0.55859375 C-14.65122681 -0.93564453 -14.65122681 -0.93564453 -12.97631836 -1.3203125 C-4.07202394 -2.81864085 -4.07202394 -2.81864085 0 0 Z " fill="#FDD100" transform="translate(1600.703125,213.87109375)"/>
<path d="M0 0 C41.58 0 83.16 0 126 0 C126.06623841 91.70147875 126.06623841 91.70147875 126.08468628 136.91445923 C126.08496239 137.5894474 126.08523851 138.26443557 126.08552299 138.95987792 C126.09150819 153.62764406 126.09704864 168.29541033 126.10213066 182.96317681 C126.10462543 190.15578978 126.10721852 197.34840271 126.10986328 204.54101562 C126.1101248 205.25678376 126.11038632 205.97255189 126.11065576 206.71000996 C126.11918511 229.92840232 126.13421269 253.14678497 126.15259444 276.36517145 C126.17144298 300.21636768 126.18376702 324.06755855 126.18782998 347.91876211 C126.18840633 351.28419616 126.1890576 354.6496302 126.18975449 358.01506424 C126.18995676 359.00865559 126.18995676 359.00865559 126.19016311 360.02231949 C126.19267685 371.36385018 126.20333178 382.7053602 126.21583293 394.04688324 C126.22636726 404.11403437 126.22960873 414.181171 126.22700275 424.24832724 C126.2257159 430.06515954 126.22775205 435.881943 126.23841095 441.69876671 C126.24808339 447.01577928 126.24867437 452.33270978 126.24179779 457.64972599 C126.24094684 459.5811098 126.24353461 461.51249855 126.24976636 463.4438725 C126.25770291 466.05374568 126.25352164 468.66331607 126.24609566 471.27318382 C126.25134968 472.03641126 126.25660371 472.7996387 126.26201695 473.58599424 C126.2282916 478.7717084 126.2282916 478.7717084 124 481 C121.8642025 481.24609566 121.8642025 481.24609566 119.16586304 481.24050903 C118.14500107 481.24325836 117.1241391 481.24600769 116.07234192 481.24884033 C114.94809311 481.24164978 113.8238443 481.23445923 112.66552734 481.22705078 C110.89481621 481.22748886 110.89481621 481.22748886 109.08833313 481.22793579 C105.84675081 481.22677917 102.60533998 481.21673177 99.36379194 481.20278788 C95.97785655 481.19030614 92.59191798 481.18911204 89.20596313 481.18673706 C82.79216541 481.18051475 76.37843567 481.16409382 69.96466792 481.14403808 C62.66368175 481.1217024 55.36269237 481.11069153 48.06168056 481.10064721 C33.04108246 481.07972821 18.02054802 481.0445377 3 481 C2.61367152 432.57648712 2.23115666 384.15294533 1.85345319 335.72936437 C1.80841573 329.95572513 1.76334808 324.18208612 1.71826172 318.40844727 C1.70928987 317.2594719 1.70031803 316.11049654 1.69107431 314.92670374 C1.54751326 296.55074652 1.40153113 278.17480934 1.25458378 259.79887892 C1.10279837 240.81087094 0.9537776 221.82284258 0.80709887 202.83479446 C0.72507042 192.22543998 0.64192994 181.61609714 0.55558777 171.00677681 C0.2639848 135.11493735 -0.01414765 99.22371718 -0.0402832 63.33053589 C-0.04098576 62.36711765 -0.04168832 61.40369942 -0.04241216 60.41108669 C-0.05441945 40.27404173 -0.02139866 20.13703484 0 0 Z " fill="#00345E" transform="translate(2698,1363)"/>
<path d="M0 0 C15.53181875 12.26257276 27.57302081 30.25209618 30.1875 50.1875 C32.40985657 71.19304332 29.40354758 91.80499531 15.86132812 108.85742188 C1.03957603 126.57514724 -18.62948559 136.72561632 -41.703125 138.93359375 C-63.54600557 140.54639903 -83.96640715 133.66326101 -100.84375 119.78125 C-115.32577816 107.12853066 -125.95093737 89.57877743 -127.8125 70.1875 C-129.15210412 48.80167716 -123.13341706 27.79715696 -108.90600586 11.48339844 C-80.4171283 -19.84002103 -34.49324382 -26.05405153 0 0 Z " fill="#00345E" transform="translate(2814.8125,1128.8125)"/>
</svg>
