<?xml version="1.0" encoding="UTF-8"?>
<svg version="1.1" xmlns="http://www.w3.org/2000/svg" width="550" height="375">
<path d="M0 0 C13.38440875 10.5381041 23.9535789 25.82775152 27.2734375 42.73828125 C29.79956862 65.49601612 26.94741592 85.85097616 12.5234375 104.4296875 C3.79247566 114.45849502 -6.02487692 121.56508798 -18.2890625 126.6796875 C-19.85140625 127.33130859 -19.85140625 127.33130859 -21.4453125 127.99609375 C-38.38366686 133.89573902 -58.99722998 132.38786316 -75.14453125 124.94921875 C-95.33144829 115.09536007 -108.07789528 99.49242779 -115.3828125 78.54296875 C-120.82177319 58.87709698 -117.29077005 38.11806724 -107.62890625 20.44921875 C-104.04956859 14.38701438 -99.32808713 9.53954681 -94.2890625 4.6796875 C-93.65613281 4.01582031 -93.02320313 3.35195312 -92.37109375 2.66796875 C-67.6888333 -21.57840189 -26.46155848 -19.17063965 0 0 Z " fill="#08A6EE" transform="translate(491.2890625,128.3203125)"/>
<path d="M0 0 C3.51521526 2.75187297 6.87777154 5.65438411 10.18212891 8.65722656 C9.85212891 9.31722656 9.52212891 9.97722656 9.18212891 10.65722656 C8.19212891 10.65722656 7.20212891 10.65722656 6.18212891 10.65722656 C3.49050638 13.33766506 0.93729165 16.08104399 -1.55224609 18.94824219 C-4.72560307 22.35095317 -6.79693501 24.00243489 -11.51708984 24.43066406 C-12.24758545 24.43888184 -12.97808105 24.44709961 -13.73071289 24.45556641 C-19.41047787 25.00434239 -23.47013092 30.24650249 -27.11474609 34.20410156 C-27.71327393 34.84065674 -28.31180176 35.47721191 -28.9284668 36.13305664 C-30.129245 37.4224129 -31.3060416 38.73460521 -32.45532227 40.07006836 C-34.15800687 41.90363479 -35.68509053 43.34648719 -37.81787109 44.65722656 C-41.2837463 44.74662414 -43.5069387 44.43129063 -46.81787109 43.65722656 C-48.6690895 43.31102893 -50.52039165 42.96523948 -52.37281799 42.62556458 C-56.60110825 41.84210333 -60.81927334 41.00470604 -65.03686523 40.16577148 C-67.14102236 39.7487767 -69.24683581 39.3411464 -71.35302734 38.93457031 C-72.5944751 38.68956787 -73.83592285 38.44456543 -75.11499023 38.19213867 C-79.11007699 37.61501498 -82.78867223 37.56619167 -86.81787109 37.65722656 C-87.14787109 38.31722656 -87.47787109 38.97722656 -87.81787109 39.65722656 C-82.26513885 43.10952891 -76.84037569 46.09208572 -70.81787109 48.65722656 C-68.73695718 49.90577491 -66.70251899 51.21348053 -64.66552734 52.53222656 C-62.74176167 53.77516117 -62.74176167 53.77516117 -60.13037109 54.71972656 C-57.23913957 55.89184745 -55.21439543 57.6819818 -52.81787109 59.65722656 C-53.67058594 60.60082031 -53.67058594 60.60082031 -54.54052734 61.56347656 C-58.86995116 66.3627043 -63.17416258 71.17937844 -67.40771484 76.06347656 C-68.50202255 77.30025646 -69.65015241 78.48950788 -70.81787109 79.65722656 C-73.63818359 79.63378906 -73.63818359 79.63378906 -76.94287109 79.28222656 C-78.03857422 79.17136719 -79.13427734 79.06050781 -80.26318359 78.94628906 C-81.10623047 78.85089844 -81.94927734 78.75550781 -82.81787109 78.65722656 C-83.31287109 80.14222656 -83.31287109 80.14222656 -83.81787109 81.65722656 C-82.92583984 82.06972656 -82.03380859 82.48222656 -81.11474609 82.90722656 C-70.36229002 88.21240313 -70.36229002 88.21240313 -68.00537109 92.96972656 C-66.81787109 96.65722656 -66.81787109 96.65722656 -66.81787109 98.65722656 C-67.47787109 98.65722656 -68.13787109 98.65722656 -68.81787109 98.65722656 C-68.81787109 97.99722656 -68.81787109 97.33722656 -68.81787109 96.65722656 C-69.41599609 96.36847656 -70.01412109 96.07972656 -70.63037109 95.78222656 C-72.81787109 94.65722656 -72.81787109 94.65722656 -75.81787109 92.65722656 C-78.46775374 95.27816578 -81.11207252 97.90464854 -83.75537109 100.53222656 C-84.88749023 101.65177734 -84.88749023 101.65177734 -86.04248047 102.79394531 C-86.76113281 103.509375 -87.47978516 104.22480469 -88.22021484 104.96191406 C-88.88529053 105.62175293 -89.55036621 106.2815918 -90.2355957 106.96142578 C-91.8992422 108.58396588 -91.8992422 108.58396588 -92.81787109 110.65722656 C-93.80787109 110.65722656 -94.79787109 110.65722656 -95.81787109 110.65722656 C-97.56797957 108.84286585 -99.05737352 107.09609998 -100.56787109 105.09472656 C-101.0081665 104.51335937 -101.44846191 103.93199219 -101.90209961 103.33300781 C-113.95199961 86.84251682 -118.07569018 67.62022815 -115.54101562 47.45458984 C-112.78534854 30.84632112 -104.80482121 17.21797401 -92.81787109 5.65722656 C-92.18494141 4.99335938 -91.55201172 4.32949219 -90.89990234 3.64550781 C-67.22467713 -19.61161188 -25.73191243 -19.00691893 0 0 Z " fill="#1196DC" transform="translate(489.81787109375,127.3427734375)"/>
<path d="M0 0 C2.81410732 1.8460544 5.44830233 3.80656361 8 6 C7.42424336 9.35250701 6.40693737 10.93818629 3.9375 13.25 C3.38964844 13.77078125 2.84179688 14.2915625 2.27734375 14.828125 C1.85582031 15.21484375 1.43429688 15.6015625 1 16 C-1.01507538 14.99471631 -3.02795722 13.98577992 -5.03515625 12.96484375 C-5.70417969 12.62582031 -6.37320313 12.28679687 -7.0625 11.9375 C-7.73410156 11.59589844 -8.40570313 11.25429687 -9.09765625 10.90234375 C-16.17742608 7.54417777 -23.76120798 8.29047406 -31 10.8125 C-34.4304882 12.1138916 -36.47576856 13.37810484 -39 16 C-39.66 16 -40.32 16 -41 16 C-41.43119141 16.86625 -41.43119141 16.86625 -41.87109375 17.75 C-42.58402315 19.17092503 -43.30441488 20.58815251 -44.03515625 22 C-44.37417969 22.66 -44.71320312 23.32 -45.0625 24 C-45.40410156 24.66 -45.74570312 25.32 -46.09765625 26 C-49.38706956 33.29082084 -48.80978591 41.45664005 -46.25 48.875 C-43.17562377 56.39014189 -39.12881624 60.30057642 -32 64 C-23.95497753 67.18765041 -15.0533449 67.0855149 -7 63.96484375 C-0.07553076 60.62432831 2.4817101 55.89624003 5 49 C5.33 48.01 5.66 47.02 6 46 C5.21761963 46.00523682 4.43523926 46.01047363 3.62915039 46.01586914 C0.10694167 46.03657106 -3.4152543 46.04963838 -6.9375 46.0625 C-8.16919922 46.07087891 -9.40089844 46.07925781 -10.66992188 46.08789062 C-11.83974609 46.09111328 -13.00957031 46.09433594 -14.21484375 46.09765625 C-15.84087524 46.10551147 -15.84087524 46.10551147 -17.49975586 46.11352539 C-20 46 -20 46 -21 45 C-21.07244053 42.98035801 -21.08377188 40.95832876 -21.0625 38.9375 C-21.05347656 37.83277344 -21.04445312 36.72804687 -21.03515625 35.58984375 C-21.02355469 34.73519531 -21.01195312 33.88054687 -21 33 C-15.46411467 32.97535225 -9.928261 32.95716504 -4.39233398 32.94506836 C-2.5075627 32.94002756 -0.62279535 32.93319502 1.26196289 32.92456055 C3.96501636 32.91248383 6.66801831 32.90676932 9.37109375 32.90234375 C10.21900986 32.89718246 11.06692596 32.89202118 11.9405365 32.88670349 C13.96071068 32.88650805 15.98077934 32.93793789 18 33 C19.87690058 34.87690058 19.21760556 37.92963027 19.25 40.4375 C19.1514285 51.22560257 16.51724424 60.2401236 8.95703125 68.1328125 C-1.41500683 77.80862083 -10.46325554 79.48914827 -24.2109375 79.27734375 C-33.7329477 78.90396801 -40.93633654 75.20700641 -48 69 C-48.60585938 68.49855469 -49.21171875 67.99710937 -49.8359375 67.48046875 C-56.95746862 61.08974978 -61.5606624 51.86829515 -62.2734375 42.34765625 C-62.69296306 29.95786173 -60.93027471 20.09220526 -52.5 10.4375 C-48.11372145 5.85816342 -43.64898652 2.11086357 -37.9375 -0.6875 C-36.68259766 -1.31205078 -36.68259766 -1.31205078 -35.40234375 -1.94921875 C-24.98760918 -6.50460672 -9.84384892 -5.40510839 0 0 Z " fill="#3979EE" transform="translate(100,137)"/>
<path d="M0 0 C0.33 -0.66 0.66 -1.32 1 -2 C4.96 -2 8.92 -2 13 -2 C13.0992821 5.79211766 13.17166561 13.58386259 13.21972656 21.37646484 C13.2397738 24.0243166 13.26701884 26.67212446 13.30175781 29.31982422 C13.35057744 33.13780588 13.37303881 36.95519936 13.390625 40.7734375 C13.41127014 41.94675629 13.43191528 43.12007507 13.45318604 44.32894897 C13.45551013 52.94769701 11.6735865 59.37263876 7.375 66.8125 C0.56785656 73.08223738 -6.43641798 74.84875276 -15.59375 74.48046875 C-23.33674733 73.38827991 -29.16679341 69.8713744 -33.94921875 63.71484375 C-35.2922484 61.5230593 -35.8448028 59.56075379 -36 57 C-29.5 54 -29.5 54 -25 54 C-23.73545446 55.49151525 -22.47457865 56.98735871 -21.26953125 58.52734375 C-19.33846379 60.767382 -17.89826376 61.40717332 -15 62 C-10.05450047 62.14439415 -6.94230329 61.74599011 -3 58.625 C0.21643694 54.40342651 0.09762686 51.17422372 0 46 C-0.8971875 46.7115625 -0.8971875 46.7115625 -1.8125 47.4375 C-6.91401776 51.08144125 -12.99425828 50.63641843 -19 50 C-27.49668594 47.35737662 -32.56711986 42.36240578 -36.8125 34.75 C-39.48580675 26.3079787 -40.09110097 18.06820842 -36 10 C-26.97190318 -3.17151809 -14.10594767 -8.20709683 0 0 Z M-23.8125 14 C-26.29801893 18.18613715 -26.40172419 22.17930971 -26 27 C-24.59862614 31.77538225 -22.62718907 35.06371096 -18.25 37.5625 C-13.74374673 39.45059495 -10.70623393 39.23442201 -6 38 C-1.29446828 35.28124834 0.35341284 32.11308644 2 27 C2.58527247 21.53745693 1.66593519 17.79868335 -1 13 C-3.52735665 10.17176755 -5.39378943 8.32815055 -9.1796875 7.5546875 C-15.55999314 7.23244984 -19.49235278 9.232941 -23.8125 14 Z " fill="#3B7BEE" transform="translate(276,166)"/>
<path d="M0 0 C1.34511 3.58695999 0.97963538 5.05241387 -0.4296875 8.6796875 C-2.70159406 13.04613248 -5.82683323 15.82779923 -9.50146484 19.03295898 C-16.71277588 25.13714059 -16.71277588 25.13714059 -20.84375 33.30078125 C-20.40405493 36.24307408 -19.68380564 38.9019235 -18.70703125 41.70800781 C-17.13884091 46.79163037 -16.35614019 52.09078318 -15.375 57.3125 C-15.03154541 58.97720337 -15.03154541 58.97720337 -14.68115234 60.67553711 C-13.42443297 66.8858953 -12.44434379 72.66164258 -13 79 C-13.99 79.66 -14.98 80.32 -16 81 C-22.37836438 69.6914989 -28.70480795 58.35500195 -35 47 C-38.70376394 47 -41.08993669 50.58405128 -43.66894531 53.0300293 C-46.4003429 55.60004246 -49.1233304 57.75963612 -52.25 59.8125 C-53.99122047 61.07562186 -53.99122047 61.07562186 -55 63 C-55.27226608 67.44701264 -54.7728819 71.62250085 -54 76 C-55.98 76.99 -55.98 76.99 -58 78 C-58.28230469 77.14277344 -58.56460937 76.28554687 -58.85546875 75.40234375 C-62.37889361 66.23730608 -65.64187666 63.10503908 -74.3671875 59.07421875 C-75.23601562 58.71972656 -76.10484375 58.36523438 -77 58 C-76.34 56.68 -75.68 55.36 -75 54 C-73.82244141 54.23009766 -73.82244141 54.23009766 -72.62109375 54.46484375 C-66.56286635 55.51914692 -66.56286635 55.51914692 -60.890625 53.7890625 C-59.08434614 51.9579266 -57.54784889 50.053657 -56 48 C-54.75661465 46.59827122 -53.50662909 45.20236835 -52.25 43.8125 C-50.04766996 41.28599521 -47.98704943 38.69927498 -46 36 C-49.19798227 33.18965194 -52.16264464 31.4159133 -56.11328125 29.84765625 C-58.21722762 28.90240498 -60.06496388 27.75384352 -62 26.5 C-64.5095517 24.87844352 -66.72278369 23.69023556 -69.5 22.5 C-73.63126253 20.72945892 -77.25301616 18.46230367 -81 16 C-80.34 15.01 -79.68 14.02 -79 13 C-72.94769522 12.48505252 -67.45982501 13.52664325 -61.5625 14.8125 C-59.80235565 15.17839578 -58.04193298 15.54295494 -56.28125 15.90625 C-55.40210938 16.08929688 -54.52296875 16.27234375 -53.6171875 16.4609375 C-49.6064273 17.28703438 -45.58904556 18.06743579 -41.5625 18.8125 C-40.5262146 19.01613159 -40.5262146 19.01613159 -39.46899414 19.22387695 C-35.64045469 19.92166144 -32.73243 20.10283739 -29 19 C-26.9743845 17.48877323 -26.9743845 17.48877323 -25.1875 15.5078125 C-24.50429688 14.80269531 -23.82109375 14.09757813 -23.1171875 13.37109375 C-22.41851562 12.62988281 -21.71984375 11.88867188 -21 11.125 C-9.92231582 -0.50452453 -9.92231582 -0.50452453 0 0 Z " fill="#EBECEC" transform="translate(482,151)"/>
<path d="M0 0 C5.9152792 6.08428718 9.14521158 13.09529497 9.5 21.625 C9.25806279 29.54172317 6.75335003 35.72832637 1.24609375 41.453125 C-5.89686209 47.68796311 -12.78793834 49.08126517 -22.18359375 48.73046875 C-29.2070433 47.80056101 -34.44523614 45.06648876 -39.25 39.875 C-44.74790327 32.63764711 -46.54881636 24.64432624 -45.515625 15.671875 C-43.63109304 7.57348092 -38.40235014 1.11773246 -31.38671875 -3.265625 C-20.3927819 -8.24533483 -9.96767205 -6.20210706 0 0 Z M-30.625 12.4375 C-32.8881411 17.79757103 -33.34020138 22.38752454 -31.75 28 C-29.23205305 32.22365295 -26.68327824 35.23363752 -21.92578125 36.91796875 C-17.25649097 37.84448804 -13.69195717 37.028135 -9.578125 34.6796875 C-5.36944601 31.27177487 -4.01678043 26.91342634 -3.375 21.6875 C-4.05509311 16.34391127 -5.38237491 12.57548179 -9.375 8.875 C-16.97135935 3.81076043 -24.80274818 5.41064435 -30.625 12.4375 Z " fill="#F6B213" transform="translate(224.8125,167.75)"/>
<path d="M0 0 C6.63428114 7.00285232 9.63137561 14.42322818 9.45703125 23.98046875 C8.75797366 32.06579524 5.3312285 38.06690681 -0.75 43.375 C-8.37298575 49.07494579 -16.49201405 49.50125052 -25.75 48.375 C-28.80471103 47.45765538 -31.16910004 46.22861393 -33.75 44.375 C-35.0803125 43.50875 -35.0803125 43.50875 -36.4375 42.625 C-42.45863943 36.76659407 -44.90464479 30.64362206 -45.125 22.3125 C-45.15636021 14.15884508 -43.32871902 8.47496722 -37.953125 2.31640625 C-26.70994759 -8.49953042 -12.77645379 -7.5497227 0 0 Z M-30.5625 12.625 C-32.78797462 17.7787307 -33.38570804 22.23675881 -31.6875 27.5625 C-29.89012971 31.67540139 -27.595944 33.98035562 -23.75 36.375 C-19.33124819 37.93025426 -15.79329145 37.71840209 -11.5 35.875 C-7.4372233 33.53170557 -5.15025827 30.86639446 -3.75 26.375 C-2.88376382 20.65983253 -3.54891864 16.29094637 -6.75 11.375 C-9.53045506 8.16009884 -11.48023329 6.63872528 -15.80078125 6.13671875 C-22.39432705 5.92035023 -26.27684326 7.30487439 -30.5625 12.625 Z " fill="#E33D31" transform="translate(166.75,167.625)"/>
<path d="M0 0 C6.5549554 3.64278526 11.08575371 8.88508335 13.75 15.9375 C13.77368164 17.89746094 13.77368164 17.89746094 12.75 19.9375 C10.29862878 21.29410441 8.01936877 22.36021745 5.43359375 23.390625 C4.70253922 23.69570984 3.97148468 24.00079468 3.21827698 24.31512451 C0.88033028 25.28695349 -1.46567152 26.23734758 -3.8125 27.1875 C-5.39836211 27.84235768 -6.98365688 28.4985911 -8.56835938 29.15625 C-12.45583457 30.76604172 -16.35066566 32.35666316 -20.25 33.9375 C-16.50883481 37.88089034 -14.50854703 39.72033202 -9 40.25 C-4.28055731 39.85671311 -2.13921321 38.58216499 1.75 35.9375 C2.245 34.9475 2.245 34.9475 2.75 33.9375 C6.94360449 34.60847672 10.15334352 36.7933394 13.75 38.9375 C12.33164226 42.23972778 10.64324118 44.21373041 7.9375 46.5625 C7.27105469 47.15289062 6.60460937 47.74328125 5.91796875 48.3515625 C-0.71021398 53.20028716 -8.41511251 52.69441616 -16.25 51.9375 C-24.09283375 49.80325462 -29.22852893 44.89510194 -33.25 37.9375 C-36.40833052 30.17945323 -36.83505086 20.74127513 -33.5625 12.9375 C-26.92652203 0.47480966 -13.56270578 -6.25813202 0 0 Z M-20.25 13.9375 C-22.25643742 17.21468112 -23.25 19.08990462 -23.25 22.9375 C-18.31678166 22.23557915 -13.99025318 20.30219225 -9.4375 18.375 C-8.25510742 17.8809668 -8.25510742 17.8809668 -7.04882812 17.37695312 C-5.11416204 16.56791094 -3.18184247 15.75326148 -1.25 14.9375 C-2.5589572 11.81552522 -2.5589572 11.81552522 -5.25 9.9375 C-11.35061431 9.19322505 -15.53090273 9.66784057 -20.25 13.9375 Z " fill="#E23D32" transform="translate(348.25,164.0625)"/>
<path d="M0 0 C4.29 0 8.58 0 13 0 C13 26.4 13 52.8 13 80 C8.71 80 4.42 80 0 80 C0 53.6 0 27.2 0 0 Z " fill="#2B9B4A" transform="translate(296,135)"/>
<path d="M0 0 C2.50623484 2.50623484 2.57943269 4.03377019 3.21875 7.49609375 C3.42886719 8.61306641 3.63898438 9.73003906 3.85546875 10.88085938 C4.17451172 12.64139648 4.17451172 12.64139648 4.5 14.4375 C4.81904297 16.14583008 4.81904297 16.14583008 5.14453125 17.88867188 C5.56750351 20.16052597 5.98591375 22.43323436 6.3996582 24.70678711 C6.78979006 26.8468801 7.18640372 28.98580522 7.59057617 31.12329102 C7.77080322 32.08291748 7.95103027 33.04254395 8.13671875 34.03125 C8.29615967 34.87107422 8.45560059 35.71089844 8.61987305 36.57617188 C9.23504404 40.49872655 9.31476431 44.03396966 9 48 C8.01 48.66 7.02 49.32 6 50 C2.4710943 43.74343772 2.4710943 43.74343772 0.92431641 40.97949219 C-1.30778094 36.99217443 -3.56300171 33.02101186 -5.859375 29.0703125 C-6.78132181 27.46358287 -7.70319849 25.85681299 -8.625 24.25 C-9.07472168 23.4883252 -9.52444336 22.72665039 -9.98779297 21.94189453 C-10.39658691 21.22372559 -10.80538086 20.50555664 -11.2265625 19.765625 C-11.59346191 19.13430664 -11.96036133 18.50298828 -12.33837891 17.85253906 C-13.19357666 15.45798535 -12.93759304 14.34471532 -12 12 C-10.78491211 10.44433594 -10.78491211 10.44433594 -9.27734375 8.984375 C-8.73916016 8.45585937 -8.20097656 7.92734375 -7.64648438 7.3828125 C-7.08251953 6.84398437 -6.51855469 6.30515625 -5.9375 5.75 C-5.36966797 5.19570312 -4.80183594 4.64140625 -4.21679688 4.0703125 C-2.81787531 2.70665786 -1.40980886 1.35239583 0 0 Z " fill="#CAD1D6" transform="translate(460,182)"/>
<path d="M0 0 C3.67447691 4.22227736 6.1819111 8.7562674 8.75 13.6875 C9.16121094 14.45900391 9.57242187 15.23050781 9.99609375 16.02539062 C13 21.73880035 13 21.73880035 13 24 C12.01 23.67 11.02 23.34 10 23 C8.8125 20.4375 8.8125 20.4375 8 18 C7.34 18 6.68 18 6 18 C6 17.34 6 16.68 6 16 C3.525 15.505 3.525 15.505 1 15 C1 15.66 1 16.32 1 17 C-2.46153846 20 -2.46153846 20 -5 20 C-5.103125 20.61875 -5.20625 21.2375 -5.3125 21.875 C-6 24 -6 24 -9 26 C-9.36871088 27.65919896 -9.69595322 29.32774271 -10 31 C-12.2654935 36.60979342 -12.2654935 36.60979342 -15 38.0625 C-17 38 -17 38 -18.8125 37 C-20.63397366 33.93225488 -19.55257617 31.48122987 -19 28 C-19.28217221 26.40130543 -19.58566817 24.80628108 -19.90625 23.21484375 C-20.24119623 20.15516326 -20.36244746 18.60115499 -18.75927734 15.94213867 C-16.89852069 14.00400045 -14.96562451 12.31210324 -12.875 10.625 C-12.19695312 10.03589844 -11.51890625 9.44679687 -10.8203125 8.83984375 C-7.29260305 5.79753618 -3.6553513 2.88730083 0 0 Z " fill="#0C9ADE" transform="translate(446,196)"/>
<path d="M0 0 C1.98 1.32 3.96 2.64 6 4 C3.68599198 13.25603207 -3.12334816 19.32342825 -9.828125 25.703125 C-14.53899836 30.68512776 -14.34675353 34.79485428 -14.26953125 41.45703125 C-13.96794997 48.19543955 -12.99220158 54.88342103 -12.06762695 61.55957031 C-11.35373843 66.76396595 -10.82265442 71.74613719 -11 77 C-11.99 77 -12.98 77 -14 77 C-14.09023438 75.73929687 -14.18046875 74.47859375 -14.2734375 73.1796875 C-14.78234882 68.07798641 -15.68185423 63.09702846 -16.6640625 58.0703125 C-16.82074402 57.26777039 -16.97742554 56.46522827 -17.13885498 55.6383667 C-17.79914038 52.27775028 -18.4657635 48.91846309 -19.13964844 45.56054688 C-19.63436151 43.08603196 -20.11858254 40.60964007 -20.6015625 38.1328125 C-20.75670319 37.37549835 -20.91184387 36.6181842 -21.07168579 35.83792114 C-21.77260327 32.21451324 -22.17735074 29.50979253 -21 26 C-19.3894043 24.12817383 -19.3894043 24.12817383 -17.32421875 22.20703125 C-16.57849609 21.49353516 -15.83277344 20.78003906 -15.06445312 20.04492188 C-13.49578408 18.57163615 -11.92294121 17.10278029 -10.34570312 15.63867188 C-5.36704061 10.8569298 -2.2498319 6.55276801 0 0 Z " fill="#0D95DA" transform="translate(483,154)"/>
<path d="M0 0 C1.65 1.65 3.3 3.3 5 5 C2.86880866 9.04434 0.59650585 11.35192571 -3.0625 14.0625 C-6.38799607 16.52854334 -8.31458266 18.23305341 -10 22 C-14.44444444 26 -14.44444444 26 -17 26 C-18.00811583 32.41291746 -17.93886221 38.28903203 -17.30078125 44.7109375 C-17.22407196 45.49132385 -17.14736267 46.27171021 -17.06832886 47.07574463 C-16.73949527 50.34120513 -16.39829373 53.60489379 -16.03491211 56.86669922 C-15.77115821 59.27158403 -15.53423262 61.67794944 -15.30078125 64.0859375 C-15.16667595 65.18909805 -15.16667595 65.18909805 -15.02986145 66.31454468 C-14.69262665 69.96396516 -14.65609716 71.56697483 -16.98120117 74.49462891 C-17.64740479 74.99140137 -18.3136084 75.48817383 -19 76 C-20.65 75.34 -22.3 74.68 -24 74 C-23 72 -23 72 -21 71 C-20.34 70.01 -19.68 69.02 -19 68 C-18.67 69.32 -18.34 70.64 -18 72 C-18.39606343 64.06830871 -18.89658203 56.2387446 -20.0625 48.375 C-22.61718984 29.94613056 -22.61718984 29.94613056 -19.3125 23.92578125 C-16.93609252 20.91914408 -14.42223225 18.36701841 -11.625 15.75 C-6.70531983 11.02720548 -3.11640696 6.06187177 0 0 Z " fill="#0A9EE1" transform="translate(489,159)"/>
<path d="M0 0 C7.90633013 1.29197579 14.61838587 5.6523499 21.2578125 9.9453125 C23.09637736 11.12464252 23.09637736 11.12464252 25.6875 12.0625 C28.58020769 13.23521933 30.64258297 14.97935683 33 17 C30.69 19.64 28.38 22.28 26 25 C17.01542113 17.38263966 8.00450344 9.66187812 0 1 C0 0.67 0 0.34 0 0 Z " fill="#1984BA" transform="translate(404,170)"/>
<path d="M0 0 C0.99 0.66 1.98 1.32 3 2 C2.25509568 9.82149537 -2.05420308 14.29402008 -7.5625 19.5625 C-11.99358565 23.80119116 -16.01944217 27.73187718 -17 34 C-17.02791891 36.30131597 -16.93677063 38.57980061 -16.83984375 40.87890625 C-17 43 -17 43 -19 46 C-19.53132389 43.41842632 -20.05034379 40.83538244 -20.5625 38.25 C-20.71396484 37.52039063 -20.86542969 36.79078125 -21.02148438 36.0390625 C-22.31397499 29.42631983 -22.31397499 29.42631983 -21 26 C-19.3894043 24.12817383 -19.3894043 24.12817383 -17.32421875 22.20703125 C-16.57849609 21.49353516 -15.83277344 20.78003906 -15.06445312 20.04492188 C-13.49578408 18.57163615 -11.92294121 17.10278029 -10.34570312 15.63867188 C-5.36704061 10.8569298 -2.2498319 6.55276801 0 0 Z " fill="#1792CC" transform="translate(483,154)"/>
<path d="M0 0 C1.32 1.65 2.64 3.3 4 5 C3 7 3 7 0.7578125 7.8515625 C-2.50658292 9.21095663 -4.52852269 10.98497043 -7.125 13.375 C-7.97320312 14.14585937 -8.82140625 14.91671875 -9.6953125 15.7109375 C-14.31890066 20.3031793 -15.46693437 23.38243504 -16.375 29.7578125 C-17 32 -17 32 -20 34 C-19.7215625 32.824375 -19.7215625 32.824375 -19.4375 31.625 C-19.03311943 28.27441815 -19.28070329 26.45457584 -19.91796875 23.234375 C-20.24646286 20.17011027 -20.3636189 18.60309967 -18.75854492 15.94091797 C-16.89794545 14.00342572 -14.96518119 12.31174549 -12.875 10.625 C-12.19695312 10.03589844 -11.51890625 9.44679687 -10.8203125 8.83984375 C-7.29260305 5.79753618 -3.6553513 2.88730083 0 0 Z " fill="#1590CB" transform="translate(446,196)"/>
<path d="M0 0 C5.53588533 -0.02464775 11.071739 -0.04283496 16.60766602 -0.05493164 C18.4924373 -0.05997244 20.37720465 -0.06680498 22.26196289 -0.07543945 C24.96501636 -0.08751617 27.66801831 -0.09323068 30.37109375 -0.09765625 C31.21900986 -0.10281754 32.06692596 -0.10797882 32.9405365 -0.11329651 C34.96071068 -0.11349195 36.98077934 -0.06206211 39 0 C40 1 40 1 40.09765625 4.16015625 C40.08605469 5.44792969 40.07445312 6.73570312 40.0625 8.0625 C40.05347656 9.35285156 40.04445312 10.64320313 40.03515625 11.97265625 C40.02355469 12.97167969 40.01195312 13.97070312 40 15 C39.67 15 39.34 15 39 15 C38.67 10.71 38.34 6.42 38 2 C26.12 1.67 14.24 1.34 2 1 C2 4.3 2 7.6 2 11 C10.58 11 19.16 11 28 11 C27.67 12.32 27.34 13.64 27 15 C27 14.34 27 13.68 27 13 C26.21761963 13.00523682 25.43523926 13.01047363 24.62915039 13.01586914 C21.10694167 13.03657106 17.5847457 13.04963838 14.0625 13.0625 C12.83080078 13.07087891 11.59910156 13.07925781 10.33007812 13.08789062 C9.16025391 13.09111328 7.99042969 13.09433594 6.78515625 13.09765625 C5.15912476 13.10551147 5.15912476 13.10551147 3.50024414 13.11352539 C1 13 1 13 0 12 C-0.07244053 9.98035801 -0.08377188 7.95832876 -0.0625 5.9375 C-0.05347656 4.83277344 -0.04445313 3.72804687 -0.03515625 2.58984375 C-0.02355469 1.73519531 -0.01195313 0.88054687 0 0 Z " fill="#6B9CBC" transform="translate(79,170)"/>
<path d="M0 0 C11.1480811 3.26285301 11.1480811 3.26285301 14.33203125 7.96875 C17 13.17270318 17 13.17270318 17 16 C16.34 16 15.68 16 15 16 C15 15.34 15 14.68 15 14 C14.1028125 13.566875 14.1028125 13.566875 13.1875 13.125 C11 12 11 12 8 10 C2.72 15.28 -2.56 20.56 -8 26 C-8.66 25.67 -9.32 25.34 -10 25 C-9.54560547 24.56131592 -9.09121094 24.12263184 -8.62304688 23.6706543 C-6.57425281 21.68411205 -4.53708444 19.68604501 -2.5 17.6875 C-1.78457031 16.99720703 -1.06914062 16.30691406 -0.33203125 15.59570312 C0.34472656 14.92861328 1.02148438 14.26152344 1.71875 13.57421875 C2.34716797 12.96151123 2.97558594 12.34880371 3.62304688 11.7175293 C5.31275311 9.97678075 5.31275311 9.97678075 5 7 C4.360625 6.773125 3.72125 6.54625 3.0625 6.3125 C1 5 1 5 0.25 2.375 C0.1675 1.59125 0.085 0.8075 0 0 Z " fill="#0790D5" transform="translate(406,210)"/>
<path d="M0 0 C0.66 0.66 1.32 1.32 2 2 C1.79595261 5.19674245 1.53214642 7.30589597 -0.4375 9.875 C-2 11 -2 11 -4 11 C-4.2475 11.598125 -4.495 12.19625 -4.75 12.8125 C-6.18072525 15.31626919 -7.5691582 16.48072388 -10 18 C-10.66 18 -11.32 18 -12 18 C-12.90234375 15.92578125 -12.90234375 15.92578125 -13 13 C-11.18392567 10.39256366 -8.89370853 8.33221184 -6.5625 6.1875 C-5.93794922 5.59001953 -5.31339844 4.99253906 -4.66992188 4.37695312 C-3.12638498 2.90411257 -1.56484123 1.45018529 0 0 Z " fill="#B8BEC1" transform="translate(460,182)"/>
<path d="M0 0 C-1.31111586 2.91267127 -2.69920907 4.92552991 -5.00390625 7.12890625 C-5.57947266 7.68900391 -6.15503906 8.24910156 -6.74804688 8.82617188 C-7.34681641 9.39916016 -7.94558594 9.97214844 -8.5625 10.5625 C-9.75590292 11.70484825 -10.94491454 12.85180657 -12.12890625 14.00390625 C-12.91890015 14.75909546 -12.91890015 14.75909546 -13.72485352 15.52954102 C-15.24271322 17.09043903 -15.24271322 17.09043903 -16 20 C-16.66 20 -17.32 20 -18 20 C-16.60838098 15.83258477 -14.66792321 13.20583337 -11.6875 10 C-10.88570313 9.13632813 -10.08390625 8.27265625 -9.2578125 7.3828125 C-8.51273437 6.59648437 -7.76765625 5.81015625 -7 5 C-6.46117187 4.41992188 -5.92234375 3.83984375 -5.3671875 3.2421875 C-2.27321429 0 -2.27321429 0 0 0 Z " fill="#4BA6DC" transform="translate(403,129)"/>
<path d="M0 0 C5.16946663 5.16946663 6.46766053 13.94650197 7 21 C6.67 20.01 6.34 19.02 6 18 C5.34 18 4.68 18 4 18 C3.67 14.7 3.34 11.4 3 8 C2.34 8 1.68 8 1 8 C0.67 5.36 0.34 2.72 0 0 Z " fill="#4BAAE1" transform="translate(511,153)"/>
<path d="M0 0 C2.97246802 2.54782974 4.41535288 5.45340883 6 9 C6 9.66 6 10.32 6 11 C5.34 11 4.68 11 4 11 C4 10.34 4 9.68 4 9 C3.38125 8.7525 2.7625 8.505 2.125 8.25 C-0.35068687 6.79371361 -0.95125002 5.62187494 -2 3 C-1.34 2.01 -0.68 1.02 0 0 Z " fill="#269BD5" transform="translate(417,215)"/>
<path d="M0 0 C4.05281712 1.22527029 7.44360764 2.69880494 11 5 C10.67 5.99 10.34 6.98 10 8 C5.60249328 7.49259538 3.13051078 4.91706686 0 2 C0 1.34 0 0.68 0 0 Z " fill="#1885BB" transform="translate(406,210)"/>
<path d="M0 0 C0.66 1.32 1.32 2.64 2 4 C2.33 2.68 2.66 1.36 3 0 C3.66 0 4.32 0 5 0 C4.6875 2.875 4.6875 2.875 4 6 C3.01 6.66 2.02 7.32 1 8 C-1.6875 7.125 -1.6875 7.125 -4 6 C-3 4 -3 4 -1 3 C-0.67 2.01 -0.34 1.02 0 0 Z " fill="#1D9FDC" transform="translate(469,227)"/>
</svg>
